<svg width="856" height="385" viewBox="0 0 856 385" fill="none" xmlns="http://www.w3.org/2000/svg">
<path d="M461.338 15.8546C461.71 15.8547 462.082 15.8547 462.465 15.8547C465.636 15.8547 465.636 15.8547 466.984 15.8548C472.638 15.8549 478.292 15.8521 483.947 15.8474C549.614 15.7941 549.614 15.7941 581.067 16.6345C581.744 16.6524 582.42 16.6703 583.096 16.6882C590.181 16.8762 597.265 17.0685 604.344 17.3314C604.863 17.3504 604.863 17.3504 605.393 17.3699C617.717 17.823 630.038 18.3369 642.357 18.85C644.275 18.9298 646.192 19.0092 648.11 19.0885C661.323 19.6364 674.529 20.2258 687.727 20.9413C688.516 20.9837 688.516 20.9837 689.32 21.027C762.704 24.9996 762.704 24.9996 780.382 39.5636C804.15 60.1589 804.861 90.2506 804.785 115.716C804.782 116.671 804.781 117.625 804.779 118.58C804.758 129.726 804.31 140.816 803.267 151.939C803.136 153.378 803.014 154.817 802.894 156.257C802.683 158.794 802.449 161.33 802.202 163.866C802.109 164.829 802.023 165.793 801.942 166.757C801.34 173.749 799.934 179.562 792.757 184.691C790.061 186.298 787.089 187.647 783.854 188.616C783.254 188.799 783.254 188.799 782.642 188.986C780.254 189.454 778.022 189.435 775.558 189.419C775.007 189.417 774.455 189.415 773.887 189.413C765.518 189.35 757.158 188.989 748.802 188.668C746.5 188.58 744.198 188.495 741.896 188.41C737.417 188.244 732.938 188.074 728.459 187.903C728.493 188.522 728.493 188.522 728.528 189.154C729.074 198.985 729.618 208.817 730.16 218.648C730.227 219.861 730.294 221.075 730.361 222.288C730.374 222.529 730.387 222.771 730.401 223.02C730.616 226.917 730.832 230.814 731.049 234.711C731.271 238.717 731.493 242.724 731.713 246.731C731.836 248.978 731.96 251.225 732.086 253.472C732.204 255.592 732.321 257.712 732.436 259.832C732.479 260.606 732.522 261.379 732.566 262.152C732.681 264.202 732.787 266.251 732.87 268.301C732.897 268.943 732.927 269.584 732.959 270.225C733.003 271.151 733.033 272.077 733.059 273.004C733.074 273.274 733.089 273.545 733.105 273.824C733.138 275.793 732.473 276.904 730.932 278.532C729.072 279.792 726.912 279.871 724.452 279.816C721.727 279.411 720.015 278.114 718.072 276.748C717.647 276.456 717.223 276.165 716.785 275.864C714.277 274.099 711.927 272.254 709.664 270.326C709.258 269.985 708.852 269.644 708.433 269.293C705.338 266.687 702.37 264.02 699.452 261.311C698.808 260.715 698.16 260.122 697.509 259.529C689.003 251.776 680.874 243.82 672.868 235.795C672.076 235.003 671.281 234.213 670.486 233.422C667.076 230.032 663.724 226.616 660.403 223.181C658.86 221.586 657.308 219.997 655.752 218.41C653.592 216.205 651.439 213.998 649.291 211.787C648.855 211.338 648.855 211.338 648.41 210.88C646.798 209.217 645.2 207.549 643.616 205.873C637.64 199.557 632.887 195.9 622.119 194.414C611.406 193.17 600.601 193.73 589.826 194.142C587.578 194.227 585.33 194.307 583.082 194.388C579.221 194.528 575.361 194.67 571.5 194.814C565.379 195.043 559.257 195.265 553.136 195.486C551.059 195.561 548.982 195.636 546.905 195.711C546.389 195.73 545.874 195.749 545.344 195.768C541.683 195.9 538.022 196.033 534.362 196.167C515.701 196.847 497.039 197.505 478.375 198.139C477.823 198.157 477.823 198.157 477.259 198.177C438.28 199.501 399.29 200.676 331.368 202.375C326.892 202.473 322.417 202.581 317.942 202.699C308.215 202.955 298.489 203.127 288.757 203.245C288.274 203.252 287.791 203.258 287.293 203.264C245.207 203.789 203.472 202.536 158.554 200.476C155.762 200.348 152.969 200.223 150.177 200.098C140.523 199.664 130.873 199.204 121.226 198.693C119.652 198.61 118.078 198.528 116.504 198.447C68.7157 195.983 68.7157 195.983 54.1296 184.959C49.6839 180.858 48.4101 176.213 47.7037 171.176C47.615 170.564 47.615 170.564 47.5245 169.94C47.3324 168.606 47.1447 167.271 46.9579 165.937C46.8928 165.475 46.8277 165.014 46.7606 164.539C43.921 144.373 41.8216 124.223 41.7967 103.944C41.7955 103.134 41.7929 102.325 41.7901 101.515C41.7662 92.0327 42.1413 82.5151 43.8048 73.0995C43.8452 72.8649 43.8856 72.6303 43.9273 72.3886C45.1681 65.2482 46.8996 58.0133 50.3583 51.2449C50.4811 51.0027 50.6039 50.7605 50.7304 50.5109C54.7836 42.6368 60.3229 36.343 71.1316 32.6909C71.5142 32.5442 71.8967 32.3974 72.2908 32.2463C80.7324 29.1532 91.0492 28.5191 100.313 27.6956C100.847 27.6479 100.847 27.6479 101.391 27.5994C147.801 23.4988 194.78 22.1067 342.82 17.0986C345.041 17.0346 347.262 16.9693 349.483 16.9036C386.757 15.8059 424.041 15.8538 461.338 15.8546Z" fill="white"/>
<path d="M461.338 15.8546C461.71 15.8547 462.082 15.8547 462.465 15.8547C465.636 15.8547 465.636 15.8547 466.984 15.8548C472.638 15.8549 478.292 15.8521 483.947 15.8474C549.614 15.7941 549.614 15.7941 581.067 16.6345C581.744 16.6524 582.42 16.6703 583.096 16.6882C590.181 16.8762 597.265 17.0685 604.344 17.3314C604.863 17.3504 604.863 17.3504 605.393 17.3699C617.717 17.823 630.038 18.3369 642.357 18.85C644.275 18.9298 646.192 19.0092 648.11 19.0885C661.323 19.6364 674.529 20.2258 687.727 20.9413C688.516 20.9837 688.516 20.9837 689.32 21.027C762.704 24.9996 762.704 24.9996 780.382 39.5636C804.15 60.1589 804.861 90.2506 804.785 115.716C804.782 116.671 804.781 117.625 804.779 118.58C804.758 129.726 804.31 140.816 803.267 151.939C803.136 153.378 803.014 154.817 802.894 156.257C802.683 158.794 802.449 161.33 802.202 163.866C802.109 164.829 802.023 165.793 801.942 166.757C801.34 173.749 799.934 179.562 792.757 184.691C790.061 186.298 787.089 187.647 783.854 188.616C783.254 188.799 783.254 188.799 782.642 188.986C780.254 189.454 778.022 189.435 775.558 189.419C775.007 189.417 774.455 189.415 773.887 189.413C765.518 189.35 757.158 188.989 748.802 188.668C746.5 188.58 744.198 188.495 741.896 188.41C737.417 188.244 732.938 188.074 728.459 187.903C728.493 188.522 728.493 188.522 728.528 189.154C729.074 198.985 729.618 208.817 730.16 218.648C730.227 219.861 730.294 221.075 730.361 222.288C730.374 222.529 730.387 222.771 730.401 223.02C730.616 226.917 730.832 230.814 731.049 234.711C731.271 238.717 731.493 242.724 731.713 246.731C731.836 248.978 731.96 251.225 732.086 253.472C732.204 255.592 732.321 257.712 732.436 259.832C732.479 260.606 732.522 261.379 732.566 262.152C732.681 264.202 732.787 266.251 732.87 268.301C732.897 268.943 732.927 269.584 732.959 270.225C733.003 271.151 733.033 272.077 733.059 273.004C733.074 273.274 733.089 273.545 733.105 273.824C733.138 275.793 732.473 276.904 730.932 278.532C729.072 279.792 726.912 279.871 724.452 279.816C721.727 279.411 720.015 278.114 718.072 276.748C717.647 276.456 717.223 276.165 716.785 275.864C714.277 274.099 711.927 272.254 709.664 270.326C709.258 269.985 708.852 269.644 708.433 269.293C705.338 266.687 702.37 264.02 699.452 261.311C698.808 260.715 698.16 260.122 697.509 259.529C689.003 251.776 680.874 243.82 672.868 235.795C672.076 235.003 671.281 234.213 670.486 233.422C667.076 230.032 663.724 226.616 660.403 223.181C658.86 221.586 657.308 219.997 655.752 218.41C653.592 216.205 651.439 213.998 649.291 211.787C648.855 211.338 648.855 211.338 648.41 210.88C646.798 209.217 645.2 207.549 643.616 205.873C637.64 199.557 632.887 195.9 622.119 194.414C611.406 193.17 600.601 193.73 589.826 194.142C587.578 194.227 585.33 194.307 583.082 194.388C579.221 194.528 575.361 194.67 571.5 194.814C565.379 195.043 559.257 195.265 553.136 195.486C551.059 195.561 548.982 195.636 546.905 195.711C546.389 195.73 545.874 195.749 545.344 195.768C541.683 195.9 538.022 196.033 534.362 196.167C515.701 196.847 497.039 197.505 478.375 198.139C477.823 198.157 477.823 198.157 477.259 198.177C438.28 199.501 399.29 200.676 331.368 202.375C326.892 202.473 322.417 202.581 317.942 202.699C308.215 202.955 298.489 203.127 288.757 203.245C288.274 203.252 287.791 203.258 287.293 203.264C245.207 203.789 203.472 202.536 158.554 200.476C155.762 200.348 152.969 200.223 150.177 200.098C140.523 199.664 130.873 199.204 121.226 198.693C119.652 198.61 118.078 198.528 116.504 198.447C68.7157 195.983 68.7157 195.983 54.1296 184.959C49.6839 180.858 48.4101 176.213 47.7037 171.176C47.615 170.564 47.615 170.564 47.5245 169.94C47.3324 168.606 47.1447 167.271 46.9579 165.937C46.8928 165.475 46.8277 165.014 46.7606 164.539C43.921 144.373 41.8216 124.223 41.7967 103.944C41.7955 103.134 41.7929 102.325 41.7901 101.515C41.7662 92.0327 42.1413 82.5151 43.8048 73.0995C43.8452 72.8649 43.8856 72.6303 43.9273 72.3886C45.1681 65.2482 46.8996 58.0133 50.3583 51.2449C50.4811 51.0027 50.6039 50.7605 50.7304 50.5109C54.7836 42.6368 60.3229 36.343 71.1316 32.6909C71.5142 32.5442 71.8967 32.3974 72.2908 32.2463C80.7324 29.1532 91.0492 28.5191 100.313 27.6956C100.847 27.6479 100.847 27.6479 101.391 27.5994C147.801 23.4988 194.78 22.1067 342.82 17.0986C345.041 17.0346 347.262 16.9693 349.483 16.9036C386.757 15.8059 424.041 15.8538 461.338 15.8546ZM361.958 26.2683C361.623 26.2759 361.288 26.2835 360.943 26.2913C353.361 26.4637 345.782 26.6726 338.204 26.915C336.217 26.978 334.231 27.0382 332.244 27.0985C319.202 27.495 306.163 27.9392 293.127 28.4312C286.108 28.6947 279.093 28.9083 272.066 29.0192C268.683 29.0736 265.327 29.2002 261.953 29.3857C258.592 29.5533 255.226 29.6464 251.861 29.7502C232.801 30.3413 213.75 31.0738 194.712 31.9561C187.717 32.2796 180.72 32.5657 173.719 32.8171C169.814 32.9467 169.814 32.9467 165.927 33.2359C163.158 33.4939 160.381 33.5279 157.591 33.5892C152.665 33.7201 147.765 34.0622 142.856 34.3798C140.521 34.5288 138.184 34.6678 135.847 34.8067C106.491 34.883 106.491 34.8831 80.0345 40.8975C78.6511 41.2738 78.6511 41.2738 77.1905 41.5665C70.5387 43.0856 66.7881 46.1723 63.6354 50.5477C61.968 52.9634 60.7109 55.4138 59.7557 58.0243C59.6372 58.3479 59.5187 58.6715 59.3966 59.0048C57.5867 64.1216 56.4559 69.2561 55.7216 74.503C55.6575 74.9589 55.6574 74.9589 55.592 75.4239C54.5979 82.6682 54.5169 89.892 54.5843 97.1657C54.5935 98.2323 54.5994 99.2988 54.6045 100.365C54.6622 111.615 55.0026 122.809 56.2935 134.025C56.3373 134.407 56.3373 134.407 56.3819 134.797C57.3824 143.538 58.4456 152.275 59.6397 161.003C59.7593 161.882 59.8768 162.762 59.994 163.642C60.192 165.121 60.3986 166.599 60.6113 168.076C60.6902 168.632 60.7665 169.187 60.8402 169.743C61.3795 173.787 62.1197 177.21 66.4039 180.063C76.0341 185.419 89.9642 187.05 101.766 187.903C102.14 187.931 102.513 187.959 102.898 187.988C113.188 188.755 123.529 189.131 133.855 189.546C134.887 189.588 135.919 189.629 136.95 189.671C137.633 189.698 138.316 189.726 138.998 189.753C143.367 189.929 147.727 190.142 152.088 190.4C157.236 190.702 162.386 190.91 167.544 191.089C168.132 191.109 168.132 191.109 168.731 191.13C171.194 191.215 173.657 191.299 176.121 191.383C197.564 192.108 197.564 192.108 205.482 192.594C222.291 193.61 239.004 193.738 255.866 193.723C256.747 193.723 256.747 193.723 257.646 193.722C286.095 193.699 314.506 193.166 342.935 192.455C346.256 192.372 349.577 192.291 352.898 192.21C356.547 192.121 360.196 192.031 363.845 191.941C365.375 191.903 366.906 191.865 368.436 191.828C370.226 191.784 372.015 191.74 373.805 191.694C374.762 191.67 375.719 191.647 376.675 191.624C379.877 191.542 383.055 191.401 386.246 191.196C388.634 191.059 391.024 191.007 393.418 190.954C394.534 190.928 395.651 190.901 396.767 190.874C397.35 190.861 397.934 190.847 398.535 190.833C409.096 190.586 419.653 190.3 430.209 189.966C430.797 189.947 431.385 189.928 431.991 189.909C435.562 189.796 439.133 189.681 442.704 189.566C445.108 189.489 447.512 189.412 449.916 189.336C464.452 188.873 478.988 188.398 493.522 187.903C494.024 187.886 494.525 187.869 495.042 187.851C501.704 187.624 508.366 187.395 515.028 187.165C517.895 187.066 520.763 186.967 523.63 186.869C526.473 186.771 529.317 186.673 532.16 186.575C533.224 186.538 534.289 186.501 535.353 186.465C540.396 186.293 545.434 186.117 550.468 185.834C552.988 185.705 555.512 185.66 558.037 185.606C563.759 185.47 569.476 185.283 575.194 185.071C575.806 185.048 575.806 185.048 576.431 185.025C580.803 184.863 585.174 184.689 589.543 184.487C630.216 182.605 630.216 182.605 644.649 191C647.865 193.198 650.367 195.687 652.815 198.339C653.469 199.039 654.124 199.739 654.778 200.438C655.27 200.964 655.27 200.964 655.771 201.501C657.238 203.06 658.733 204.603 660.234 206.145C660.517 206.435 660.8 206.726 661.091 207.025C661.662 207.611 662.233 208.197 662.804 208.783C663.976 209.986 665.144 211.192 666.312 212.397C671.537 217.788 676.795 223.159 682.146 228.486C682.948 229.285 683.748 230.086 684.547 230.887C690.695 237.047 696.951 243.142 703.352 249.167C704.102 249.874 704.85 250.582 705.597 251.291C708.609 254.14 711.721 256.929 714.874 259.698C715.359 260.124 715.841 260.551 716.322 260.979C716.895 261.484 717.482 261.981 718.072 262.476C718.235 262.476 718.398 262.476 718.567 262.476C718.645 254.986 718.492 247.534 717.997 240.051C717.857 237.905 717.728 235.759 717.598 233.612C717.562 233.026 717.526 232.439 717.49 231.852C716.99 223.669 716.562 215.484 716.136 207.299C716.046 205.587 715.956 203.874 715.865 202.161C715.757 200.12 715.65 198.079 715.545 196.038C715.506 195.283 715.466 194.528 715.426 193.773C715.319 191.763 715.223 189.753 715.144 187.742C715.105 186.848 715.05 185.954 714.994 185.061C714.971 184.517 714.948 183.973 714.926 183.43C714.888 182.732 714.888 182.732 714.85 182.019C715.189 180.353 715.941 179.803 717.577 178.626C719.071 178.087 720.607 178.217 722.245 178.224C722.637 178.225 723.03 178.227 723.434 178.228C733.409 178.287 743.37 178.716 753.328 179.123C761.416 179.456 761.416 179.456 769.511 179.696C769.928 179.706 770.344 179.717 770.774 179.727C772.002 179.754 773.229 179.771 774.457 179.785C774.815 179.793 775.174 179.801 775.543 179.808C778.627 179.823 780.815 179.079 783.143 177.667C783.542 177.433 783.542 177.433 783.949 177.194C784.244 176.96 784.539 176.726 784.843 176.485C785.048 176.326 785.252 176.167 785.463 176.003C788.163 173.483 788.035 170.19 788.367 167.141C788.446 166.485 788.525 165.829 788.605 165.173C789.601 156.709 790.226 148.219 790.779 139.734C790.803 139.376 790.828 139.018 790.853 138.649C791.345 131.314 791.366 123.981 791.365 116.639C791.365 115.265 791.368 113.892 791.375 112.518C791.412 104.791 791.4 97.118 790.284 89.4235C790.239 89.1077 790.193 88.7919 790.147 88.4665C789.854 86.4841 789.512 84.508 789.14 82.5326C789.087 82.2458 789.034 81.959 788.979 81.6635C787.277 72.5662 784.587 63.624 778.438 55.5026C777.903 54.7914 777.386 54.0739 776.87 53.3551C771.398 45.8791 763.378 40.2037 752.2 37.3294C748.79 36.601 745.281 36.1064 741.813 35.5454C741.358 35.4715 740.904 35.3976 740.435 35.3215C733.043 34.1313 725.693 33.2771 718.165 32.6909C717.614 32.6469 717.063 32.603 716.495 32.5577C690.079 30.4628 663.496 29.4859 636.975 28.3508C630.013 28.0527 623.052 27.7434 616.091 27.428C615.168 27.3863 614.245 27.3447 613.321 27.303C612.475 27.2648 611.63 27.2265 610.784 27.1882C610.256 27.1644 610.256 27.1644 609.717 27.14C609.371 27.1243 609.026 27.1086 608.67 27.0924C608.322 27.0767 607.974 27.0609 607.616 27.0447C606.677 27.0002 605.738 26.9524 604.799 26.9024C599.396 26.6224 593.992 26.4812 588.578 26.3601C588.078 26.3487 587.578 26.3374 587.062 26.3257C583.14 26.2373 579.218 26.1546 575.296 26.0746C574.407 26.0564 574.407 26.0564 573.501 26.0379C543.139 25.4238 512.784 25.4018 482.412 25.436C476.795 25.4423 471.178 25.4439 465.561 25.4421C431.018 25.4315 396.488 25.4843 361.958 26.2683Z" fill="#8D5115"/>
</svg>
