<svg width="448" height="264" viewBox="0 0 448 264" fill="none" xmlns="http://www.w3.org/2000/svg">
<path d="M201.659 0.0265241C201.441 0.0265321 201.223 0.0265401 200.998 0.0265484C199.136 0.0266242 199.136 0.0266242 198.345 0.0266724C195.024 0.0268101 191.704 0.0239961 188.384 0.0193146C149.827 -0.0340396 149.827 -0.0340396 131.36 0.806367C130.962 0.824265 130.565 0.842154 130.168 0.860036C126.009 1.04804 121.849 1.24039 117.692 1.50326C117.388 1.52231 117.387 1.52231 117.077 1.54174C109.84 1.9949 102.606 2.50876 95.3727 3.0219C94.2469 3.10167 93.121 3.18103 91.9952 3.26033C84.237 3.80828 76.4827 4.39763 68.7334 5.11316C68.2705 5.15558 68.2705 5.15558 67.7982 5.19886C24.7102 9.17149 24.7102 9.17149 14.3305 23.7355C0.375183 44.3308 -0.0422974 74.4225 0.00244141 99.8878C0.00408936 100.843 0.00488281 101.797 0.00564575 102.752C0.0184631 113.898 0.281555 124.988 0.893433 136.111C0.970642 137.55 1.04208 138.989 1.11237 140.429C1.23666 142.966 1.37381 145.502 1.51895 148.038C1.57385 149.001 1.62402 149.965 1.67181 150.929C2.02536 157.921 2.85089 163.734 7.06464 168.863C8.64786 170.47 10.3927 171.819 12.292 172.788C12.6443 172.971 12.6443 172.971 13.0037 173.158C14.4059 173.626 15.7162 173.607 17.1631 173.591C17.4868 173.589 17.8106 173.587 18.1441 173.585C23.0582 173.522 27.9669 173.161 32.8734 172.84C34.2248 172.752 35.5764 172.667 36.928 172.582C39.558 172.415 42.188 172.246 44.8178 172.075C44.7976 172.694 44.7976 172.694 44.777 173.326C44.4564 183.157 44.1369 192.989 43.8189 202.82C43.7796 204.033 43.7404 205.246 43.7011 206.46C43.6933 206.701 43.6855 206.943 43.6774 207.192C43.5513 211.089 43.4243 214.986 43.2971 218.883C43.1664 222.889 43.0365 226.896 42.9073 230.903C42.8348 233.15 42.762 235.397 42.6882 237.644C42.6186 239.764 42.55 241.884 42.4822 244.004C42.4573 244.778 42.4321 245.551 42.4064 246.324C42.3384 248.374 42.2764 250.423 42.2274 252.473C42.2117 253.115 42.1944 253.756 42.1755 254.397C42.1496 255.323 42.1319 256.249 42.1165 257.175C42.1077 257.446 42.0988 257.717 42.0898 257.996C42.0706 259.965 42.4608 261.076 43.3658 262.704C44.4575 263.964 45.7257 264.042 47.1706 263.988C48.7701 263.582 49.7757 262.286 50.9164 260.92C51.1657 260.628 51.415 260.337 51.6719 260.036C53.1447 258.271 54.5246 256.426 55.8533 254.497C56.0918 254.157 56.3303 253.816 56.576 253.465C58.3931 250.859 60.1359 248.192 61.8494 245.483C62.2275 244.887 62.6082 244.294 62.9899 243.701C67.9845 235.948 72.7576 227.992 77.4585 219.967C77.9234 219.175 78.3899 218.384 78.8569 217.594C80.8589 214.204 82.827 210.788 84.7774 207.353C85.6828 205.758 86.5942 204.169 87.5079 202.582C88.7761 200.377 90.0405 198.169 91.3014 195.958C91.5575 195.509 91.5575 195.509 91.8188 195.051C92.7652 193.389 93.7036 191.721 94.6339 190.045C98.1426 183.729 100.933 180.072 107.256 178.586C113.546 177.342 119.89 177.902 126.217 178.314C127.537 178.399 128.857 178.479 130.177 178.56C132.443 178.7 134.71 178.842 136.977 178.986C140.571 179.214 144.165 179.437 147.76 179.658C148.979 179.733 150.199 179.808 151.418 179.883C151.721 179.902 152.023 179.921 152.335 179.94C154.484 180.072 156.634 180.205 158.783 180.339C169.74 181.019 180.697 181.677 191.656 182.311C191.98 182.329 191.98 182.329 192.311 182.348C215.198 183.673 238.091 184.848 277.972 186.547C280.6 186.645 283.228 186.752 285.855 186.871C291.566 187.127 297.277 187.299 302.991 187.417C303.275 187.423 303.559 187.429 303.851 187.436C328.562 187.961 353.067 186.708 379.441 184.648C381.08 184.52 382.72 184.395 384.359 184.27C390.028 183.836 395.694 183.376 401.358 182.865C402.282 182.781 403.206 182.7 404.131 182.619C432.19 180.154 432.19 180.154 440.754 169.131C443.365 165.03 444.112 160.385 444.527 155.348C444.579 154.736 444.579 154.736 444.632 154.112C444.745 152.777 444.855 151.443 444.965 150.109C445.003 149.647 445.042 149.186 445.081 148.71C446.748 128.545 447.981 108.395 447.996 88.116C447.996 87.3062 447.998 86.4964 447.999 85.6866C448.013 76.2046 447.793 66.6869 446.816 57.2714C446.793 57.0368 446.769 56.8022 446.745 56.5605C446.016 49.42 444.999 42.1852 442.969 35.4168C442.896 35.1746 442.824 34.9324 442.75 34.6828C440.37 26.8087 437.118 20.5149 430.771 16.8628C430.547 16.716 430.322 16.5693 430.091 16.4181C425.134 13.3251 419.077 12.6909 413.637 11.8674C413.324 11.8198 413.324 11.8198 413.004 11.7712C385.754 7.67067 358.17 6.27854 271.248 1.27049C269.944 1.20645 268.64 1.1412 267.336 1.07543C245.45 -0.0222346 223.558 0.0257173 201.659 0.0265241Z" fill="white"/>
<path d="M201.659 0.0265241C201.441 0.0265321 201.223 0.0265401 200.998 0.0265484C199.136 0.0266242 199.136 0.0266242 198.345 0.0266724C195.024 0.0268101 191.704 0.0239961 188.384 0.0193146C149.827 -0.0340396 149.827 -0.0340396 131.36 0.806367C130.962 0.824265 130.565 0.842154 130.168 0.860036C126.009 1.04804 121.849 1.24039 117.692 1.50326C117.388 1.52231 117.387 1.52231 117.077 1.54174C109.84 1.9949 102.606 2.50876 95.3727 3.0219C94.2469 3.10167 93.121 3.18103 91.9952 3.26033C84.237 3.80828 76.4827 4.39763 68.7334 5.11316C68.2705 5.15558 68.2705 5.15558 67.7982 5.19886C24.7102 9.17149 24.7102 9.17149 14.3305 23.7355C0.375183 44.3308 -0.0422974 74.4225 0.00244141 99.8878C0.00408936 100.843 0.00488281 101.797 0.00564575 102.752C0.0184631 113.898 0.281555 124.988 0.893433 136.111C0.970642 137.55 1.04208 138.989 1.11237 140.429C1.23666 142.966 1.37381 145.502 1.51895 148.038C1.57385 149.001 1.62402 149.965 1.67181 150.929C2.02536 157.921 2.85089 163.734 7.06464 168.863C8.64786 170.47 10.3927 171.819 12.292 172.788C12.6443 172.971 12.6443 172.971 13.0037 173.158C14.4059 173.626 15.7162 173.607 17.1631 173.591C17.4868 173.589 17.8106 173.587 18.1441 173.585C23.0582 173.522 27.9669 173.161 32.8734 172.84C34.2248 172.752 35.5764 172.667 36.928 172.582C39.558 172.415 42.188 172.246 44.8178 172.075C44.7976 172.694 44.7976 172.694 44.777 173.326C44.4564 183.157 44.1369 192.989 43.8189 202.82C43.7796 204.033 43.7404 205.246 43.7011 206.46C43.6933 206.701 43.6855 206.943 43.6774 207.192C43.5513 211.089 43.4243 214.986 43.2971 218.883C43.1664 222.889 43.0365 226.896 42.9073 230.903C42.8348 233.15 42.762 235.397 42.6882 237.644C42.6186 239.764 42.55 241.884 42.4822 244.004C42.4573 244.778 42.4321 245.551 42.4064 246.324C42.3384 248.374 42.2764 250.423 42.2274 252.473C42.2117 253.115 42.1944 253.756 42.1755 254.397C42.1496 255.323 42.1319 256.249 42.1165 257.175C42.1077 257.446 42.0988 257.717 42.0898 257.996C42.0706 259.965 42.4608 261.076 43.3658 262.704C44.4575 263.964 45.7257 264.042 47.1706 263.988C48.7701 263.582 49.7757 262.286 50.9164 260.92C51.1657 260.628 51.415 260.337 51.6719 260.036C53.1447 258.271 54.5246 256.426 55.8533 254.497C56.0918 254.157 56.3303 253.816 56.576 253.465C58.3931 250.859 60.1359 248.192 61.8494 245.483C62.2275 244.887 62.6082 244.294 62.9899 243.701C67.9845 235.948 72.7576 227.992 77.4585 219.967C77.9234 219.175 78.3899 218.384 78.8569 217.594C80.8589 214.204 82.827 210.788 84.7774 207.353C85.6828 205.758 86.5942 204.169 87.5079 202.582C88.7761 200.377 90.0405 198.169 91.3014 195.958C91.5575 195.509 91.5575 195.509 91.8188 195.051C92.7652 193.389 93.7036 191.721 94.6339 190.045C98.1426 183.729 100.933 180.072 107.256 178.586C113.546 177.342 119.89 177.902 126.217 178.314C127.537 178.399 128.857 178.479 130.177 178.56C132.443 178.7 134.71 178.842 136.977 178.986C140.571 179.214 144.165 179.437 147.76 179.658C148.979 179.733 150.199 179.808 151.418 179.883C151.721 179.902 152.023 179.921 152.335 179.94C154.484 180.072 156.634 180.205 158.783 180.339C169.74 181.019 180.697 181.677 191.656 182.311C191.98 182.329 191.98 182.329 192.311 182.348C215.198 183.673 238.091 184.848 277.972 186.547C280.6 186.645 283.228 186.752 285.855 186.871C291.566 187.127 297.277 187.299 302.991 187.417C303.275 187.423 303.559 187.429 303.851 187.436C328.562 187.961 353.067 186.708 379.441 184.648C381.08 184.52 382.72 184.395 384.359 184.27C390.028 183.836 395.694 183.376 401.358 182.865C402.282 182.781 403.206 182.7 404.131 182.619C432.19 180.154 432.19 180.154 440.754 169.131C443.365 165.03 444.112 160.385 444.527 155.348C444.579 154.736 444.579 154.736 444.632 154.112C444.745 152.777 444.855 151.443 444.965 150.109C445.003 149.647 445.042 149.186 445.081 148.71C446.748 128.545 447.981 108.395 447.996 88.116C447.996 87.3062 447.998 86.4964 447.999 85.6866C448.013 76.2046 447.793 66.6869 446.816 57.2714C446.793 57.0368 446.769 56.8022 446.745 56.5605C446.016 49.42 444.999 42.1852 442.969 35.4168C442.896 35.1746 442.824 34.9324 442.75 34.6828C440.37 26.8087 437.118 20.5149 430.771 16.8628C430.547 16.716 430.322 16.5693 430.091 16.4181C425.134 13.3251 419.077 12.6909 413.637 11.8674C413.324 11.8198 413.324 11.8198 413.004 11.7712C385.754 7.67067 358.17 6.27854 271.248 1.27049C269.944 1.20645 268.64 1.1412 267.336 1.07543C245.45 -0.0222346 223.558 0.0257173 201.659 0.0265241ZM260.011 10.4402C260.207 10.4478 260.404 10.4554 260.607 10.4632C265.059 10.6356 269.509 10.8445 273.958 11.0869C275.125 11.1498 276.291 11.21 277.458 11.2704C285.116 11.6669 292.771 12.111 300.425 12.6031C304.547 12.8666 308.666 13.0802 312.792 13.1911C314.778 13.2455 316.749 13.3721 318.73 13.5576C320.703 13.7252 322.679 13.8183 324.655 13.922C335.846 14.5132 347.032 15.2456 358.21 16.128C362.318 16.4514 366.426 16.7376 370.537 16.989C372.83 17.1186 372.83 17.1186 375.112 17.4077C376.738 17.6658 378.368 17.6998 380.006 17.7611C382.899 17.892 385.776 18.2341 388.658 18.5516C390.029 18.7007 391.401 18.8396 392.773 18.9785C410.01 19.0549 410.01 19.0549 425.544 25.0694C426.356 25.4457 426.356 25.4457 427.214 25.7384C431.119 27.2575 433.322 30.3442 435.173 34.7196C436.152 37.1353 436.89 39.5857 437.451 42.1962C437.52 42.5198 437.59 42.8433 437.662 43.1767C438.724 48.2935 439.388 53.428 439.819 58.6749C439.857 59.1307 439.857 59.1307 439.896 59.5958C440.479 66.8401 440.527 74.0638 440.487 81.3375C440.482 82.4041 440.478 83.4707 440.475 84.5373C440.441 95.7866 440.242 106.981 439.484 118.196C439.458 118.579 439.458 118.579 439.432 118.969C438.844 127.709 438.22 136.446 437.519 145.174C437.449 146.054 437.38 146.934 437.311 147.814C437.195 149.292 437.073 150.771 436.948 152.248C436.902 152.804 436.857 153.359 436.814 153.915C436.497 157.958 436.063 161.382 433.547 164.235C427.893 169.591 419.714 171.222 412.784 172.075C412.565 172.103 412.345 172.131 412.119 172.16C406.078 172.927 400.006 173.303 393.943 173.718C393.337 173.759 392.731 173.801 392.125 173.843C391.725 173.87 391.324 173.897 390.923 173.925C388.358 174.101 385.798 174.314 383.237 174.572C380.214 174.874 377.191 175.082 374.162 175.261C373.817 175.281 373.817 175.281 373.465 175.302C372.019 175.387 370.573 175.471 369.126 175.554C356.536 176.28 356.536 176.28 351.887 176.766C342.017 177.782 332.204 177.909 322.304 177.895C321.786 177.894 321.786 177.894 321.259 177.894C304.555 177.87 287.873 177.338 271.181 176.627C269.231 176.544 267.281 176.462 265.331 176.382C263.188 176.293 261.045 176.203 258.903 176.113C258.004 176.075 257.106 176.037 256.207 176C255.156 175.956 254.106 175.912 253.055 175.866C252.493 175.842 251.931 175.819 251.37 175.796C249.49 175.714 247.624 175.573 245.75 175.368C244.348 175.231 242.945 175.179 241.539 175.126C240.884 175.1 240.228 175.073 239.573 175.046C239.23 175.033 238.887 175.019 238.534 175.005C232.334 174.758 226.135 174.471 219.937 174.137C219.591 174.119 219.246 174.1 218.89 174.081C216.794 173.968 214.697 173.853 212.601 173.738C211.189 173.661 209.777 173.584 208.366 173.508C199.831 173.045 191.296 172.57 182.762 172.075C182.468 172.057 182.173 172.04 181.87 172.023C177.958 171.796 174.046 171.567 170.135 171.337C168.451 171.238 166.768 171.139 165.084 171.04C163.415 170.943 161.745 170.845 160.076 170.747C159.451 170.71 158.826 170.673 158.201 170.637C155.24 170.464 152.282 170.289 149.326 170.006C147.846 169.877 146.364 169.832 144.882 169.778C141.522 169.642 138.165 169.455 134.808 169.242C134.449 169.22 134.449 169.22 134.082 169.197C131.515 169.034 128.948 168.861 126.383 168.658C102.501 166.777 102.501 166.777 94.0274 175.172C92.1388 177.37 90.6697 179.859 89.2322 182.511C88.8484 183.211 88.4641 183.911 88.0797 184.61C87.791 185.136 87.791 185.136 87.4966 185.673C86.6356 187.231 85.7575 188.775 84.8761 190.316C84.7101 190.607 84.5441 190.897 84.373 191.197C84.038 191.783 83.7028 192.369 83.3675 192.955C82.6794 194.158 81.9937 195.364 81.3078 196.569C78.2398 201.96 75.1522 207.331 72.0107 212.657C71.5398 213.457 71.07 214.258 70.6007 215.059C66.9909 221.219 63.3175 227.314 59.5593 233.339C59.1188 234.045 58.6796 234.754 58.2413 235.462C56.4724 238.312 54.6456 241.101 52.7943 243.87C52.5096 244.296 52.2261 244.723 51.9437 245.151C51.6077 245.656 51.2629 246.153 50.9164 246.648C50.8206 246.648 50.7247 246.648 50.626 246.648C50.58 239.158 50.67 231.706 50.9604 224.223C51.0426 222.077 51.1182 219.931 51.1948 217.784C51.2158 217.197 51.2368 216.611 51.2579 216.024C51.5517 207.841 51.8032 199.656 52.0534 191.471C52.1057 189.758 52.1586 188.046 52.212 186.333C52.2756 184.292 52.3383 182.251 52.4002 180.21C52.4232 179.455 52.4466 178.7 52.4702 177.945C52.5331 175.935 52.5894 173.925 52.6354 171.914C52.6584 171.02 52.6907 170.126 52.7235 169.232C52.7373 168.689 52.7507 168.145 52.7635 167.602C52.7858 166.904 52.7858 166.904 52.8085 166.191C52.6095 164.525 52.1677 163.975 51.2068 162.798C50.3298 162.259 49.4277 162.389 48.4661 162.396C48.2358 162.397 48.0055 162.399 47.7682 162.4C41.9109 162.459 36.0624 162.888 30.2159 163.295C25.4667 163.628 25.4667 163.628 20.7139 163.868C20.4691 163.878 20.2244 163.888 19.9722 163.899C19.2514 163.926 18.5308 163.943 17.8098 163.957C17.5993 163.965 17.3889 163.972 17.1721 163.98C15.3612 163.995 14.0765 163.251 12.7094 161.839C12.4753 161.605 12.4753 161.605 12.2364 161.366C12.0631 161.132 11.8898 160.898 11.7112 160.657C11.5911 160.498 11.471 160.338 11.3473 160.175C9.76199 157.655 9.8371 154.362 9.642 151.313C9.59579 150.657 9.54938 150.001 9.50269 149.345C8.91763 140.88 8.55066 132.391 8.22626 123.905C8.21188 123.548 8.19754 123.19 8.18274 122.821C7.89395 115.486 7.88141 108.153 7.88205 100.811C7.88208 99.4373 7.88004 98.0634 7.8761 96.6895C7.85428 88.9625 7.86151 81.2899 8.51666 73.5954C8.54327 73.2796 8.56989 72.9638 8.59729 72.6384C8.76895 70.656 8.9697 68.6799 9.18823 66.7045C9.21948 66.4177 9.25073 66.1309 9.28296 65.8354C10.2822 56.7381 11.8616 47.7959 15.4719 39.6745C15.7865 38.9632 16.0898 38.2458 16.3929 37.527C19.6057 30.0509 24.3149 24.3755 30.8782 21.5013C32.8804 20.7729 34.9402 20.2783 36.9767 19.7172C37.2437 19.6434 37.5107 19.5695 37.7858 19.4934C42.126 18.3032 46.4419 17.4489 50.8619 16.8628C51.1855 16.8188 51.5091 16.7749 51.8425 16.7296C67.3529 14.6347 82.961 13.6577 98.5328 12.5227C102.621 12.2246 106.708 11.9153 110.795 11.5998C111.337 11.5582 111.879 11.5165 112.421 11.4749C112.918 11.4367 113.415 11.3984 113.911 11.3601C114.221 11.3363 114.221 11.3363 114.538 11.3119C114.741 11.2962 114.944 11.2805 115.153 11.2643C115.357 11.2486 115.561 11.2328 115.771 11.2166C116.323 11.1721 116.874 11.1243 117.426 11.0743C120.598 10.7943 123.771 10.6531 126.949 10.5319C127.243 10.5206 127.537 10.5092 127.84 10.4975C130.142 10.4092 132.445 10.3265 134.748 10.2465C135.27 10.2283 135.27 10.2283 135.802 10.2098C153.629 9.59572 171.453 9.5737 189.285 9.60789C192.584 9.61415 195.882 9.61577 199.18 9.61395C219.462 9.60334 239.737 9.65615 260.011 10.4402Z" fill="#62380F"/>
</svg>
