<svg width="91" height="110" viewBox="0 0 91 110" fill="none" xmlns="http://www.w3.org/2000/svg">
<path opacity="0.5" fill-rule="evenodd" clip-rule="evenodd" d="M22.0887 2.68207C22.0887 3.76894 21.365 14.6496 18.9967 16.8401C16.6294 19.0293 20.4498 19.2081 34.5603 19.4083C48.6717 19.6073 72.4147 20.3712 73.8187 17.7827C75.2217 15.1943 71.6382 15.4541 70.3984 8.73498C69.1586 2.01589 68.7048 0.0924106 68.7048 0.0924106C68.7048 0.0924106 23.052 -0.754937 22.0887 2.68207Z" fill="#CBCBCB"/>
<path opacity="0.39" fill-rule="evenodd" clip-rule="evenodd" d="M22.576 4.22381C21.6928 10.1134 22.4901 14.7076 18.3187 18.7226C15.0079 21.9094 2.42969 25.7921 2.42969 38.6368C2.42969 51.4814 6.30196 87.11 7.93521 88.819C9.56846 90.5279 22.5599 101.243 26.6756 102.162C34.2107 103.845 40.6871 104.477 46.3841 104.475C51.849 104.471 57.6442 104.541 64.5319 102.162C68.5627 100.77 81.6382 90.5279 83.2714 88.819C84.9047 87.11 88.7769 51.4802 88.7769 38.6368C88.7769 25.7921 76.1987 21.9094 72.8879 18.7226C68.7165 14.7076 69.5138 10.1146 68.6306 4.22381L48.9948 2.51842L48.9835 1.92969L45.6028 2.22286L42.2212 1.92969L42.2099 2.51842L22.576 4.22381Z" fill="#CBCBCB"/>
<path opacity="0.5" fill-rule="evenodd" clip-rule="evenodd" d="M19.4819 15.2031C19.4819 15.2031 15.4049 17.5163 12.7243 19.8057C10.0437 22.0962 2.8795 29.0596 2.40207 30.361C-1.77589 41.7517 86.165 45.694 88.6389 31.7947C89.2201 28.5293 86.3565 27.1885 84.5223 25.2806C81.0765 21.6946 76.0871 18.9452 71.6384 16.1243C71.6384 16.1243 40.0622 20.9605 19.4819 15.2031Z" fill="#F0EFEE"/>
<path opacity="0.5" fill-rule="evenodd" clip-rule="evenodd" d="M46.6658 92.9375C60.5036 92.9375 71.7222 95.8287 71.7222 99.3944C71.7222 102.96 60.5046 105.851 46.6658 105.851C32.828 105.851 21.6094 102.96 21.6094 99.3944C21.6094 95.8299 32.828 92.9375 46.6658 92.9375Z" fill="#B2B1B2"/>
<path opacity="0.64" fill-rule="evenodd" clip-rule="evenodd" d="M83.2747 88.8162C81.6415 90.5251 68.6396 101.171 64.5352 102.159C57.0747 103.954 50.6691 103.872 45.2042 103.875C39.5071 103.879 34.213 103.843 26.678 102.159C22.5632 101.24 9.57175 90.5251 7.93756 88.8162C6.3043 87.1072 2.43203 51.4774 2.43203 38.634C2.43203 25.7893 15.0102 21.9066 18.3211 18.7198C22.4924 14.7048 21.6952 10.1118 22.5783 4.22101L42.2141 2.51561L42.2255 1.92689L45.6071 2.22006L48.9878 1.92689L48.9991 2.51561L68.6349 4.22101C69.518 10.1106 68.7207 14.7048 72.8921 18.7198C76.2029 21.9066 88.7812 25.7893 88.7812 38.634C88.7802 51.4774 84.908 87.1072 83.2747 88.8162ZM71.0013 2.14497C47.848 0.477717 43.1558 0.477717 20.0034 2.14497C20.061 12.0734 20.2676 11.3536 13.4383 17.1968C10.6493 19.5815 -1.08828 24.2972 0.0816996 37.5864C1.25168 50.878 5.47683 88.1369 5.47683 88.1369C5.47683 88.1369 6.46659 92.4534 9.52363 94.9525C12.5816 97.4516 21.5753 106.085 24.0936 106.766C38.7136 110.726 52.2929 110.726 66.9129 106.766C69.4312 106.085 78.425 97.4516 81.482 94.9525C84.54 92.4534 85.5288 88.1369 85.5288 88.1369C85.5288 88.1369 89.7549 50.878 90.9239 37.5864C92.0939 24.296 80.3554 19.5815 77.5673 17.1968C70.7371 11.3536 70.9437 12.0734 71.0013 2.14497Z" fill="#B2B1B2"/>
<path fill-rule="evenodd" clip-rule="evenodd" d="M19.7812 2.01562C19.7812 2.01562 26.7586 4.28947 32.8671 4.43844C38.9764 4.5886 65.2274 5.10582 67.4739 4.43844C69.7204 3.77106 71.0055 2.01562 71.0055 2.01562H19.7812Z" fill="#B2B1B2"/>
<path fill-rule="evenodd" clip-rule="evenodd" d="M70.3206 5.53516C70.3206 5.53516 70.2423 11.5594 72.5285 13.8488C78.9247 20.2556 90.182 23.9727 90.4245 36.4515C90.5292 41.8442 86.957 72.0479 86.957 72.0479C86.957 72.0479 89.8347 40.2866 89.1252 35.8044C87.0136 22.4675 74.0344 21.5511 71.3095 15.4922C70.3244 13.3018 70.3206 5.53516 70.3206 5.53516Z" fill="#959696"/>
<path fill-rule="evenodd" clip-rule="evenodd" d="M20.8083 5.53516C20.8083 5.53516 20.8875 11.5594 18.6013 13.8488C12.2051 20.2556 0.946928 23.9727 0.705384 36.4515C0.600652 41.8442 4.17285 72.0479 4.17285 72.0479C4.17285 72.0479 1.29415 40.2866 2.00369 35.8044C4.11531 22.4675 17.0945 21.5511 19.8194 15.4922C20.8045 13.3018 20.8083 5.53516 20.8083 5.53516Z" fill="#959696"/>
<path fill-rule="evenodd" clip-rule="evenodd" d="M8.22656 89.1016C8.22656 89.1016 17.3741 96.78 21.736 99.5997C23.1183 100.493 24.2534 101.505 25.5026 102.011C28.1945 103.1 30.8487 103.109 33.6358 103.472C37.7166 104.002 46.3858 104.472 46.3858 104.472C26.5877 102.108 25.6715 100.298 8.22656 89.1016Z" fill="#7E7E7D"/>
<path fill-rule="evenodd" clip-rule="evenodd" d="M83.2833 89.1016C83.2833 89.1016 74.1367 96.78 69.7747 99.5997C68.3925 100.493 67.2574 101.505 66.0082 102.011C63.3163 103.1 60.6621 103.109 57.8749 103.472C53.7942 104.002 45.125 104.472 45.125 104.472C64.9212 102.108 65.8374 100.298 83.2833 89.1016Z" fill="#7E7E7D"/>
<path fill-rule="evenodd" clip-rule="evenodd" d="M26.2188 105.808C26.4943 105.161 27.3727 104.065 28.7021 104.065C30.0306 104.065 42.1031 105.908 45.9659 105.758C49.8287 105.609 61.6936 104.463 63.5854 103.716C65.4772 102.97 66.7783 103.218 67.2907 103.816C67.803 104.415 67.7237 105.609 67.4482 105.808C67.1718 106.008 43.6014 112.877 26.2188 105.808Z" fill="#959696"/>
<path fill-rule="evenodd" clip-rule="evenodd" d="M10.4562 91.6685C11.4809 92.7148 21.8871 100.537 22.7542 101.853C23.6213 103.169 22.9118 103.966 21.6107 103.12C20.3095 102.274 10.3373 94.5072 8.87958 92.7649C7.42088 91.0226 6.16033 88.8321 5.9235 87.2888C5.68668 85.7455 4.9375 79.6211 4.9375 79.6211C4.9375 79.6211 6.29715 87.7369 7.40108 88.931C8.50501 90.1252 10.4562 91.6685 10.4562 91.6685Z" fill="#B2B1B2"/>
<path fill-rule="evenodd" clip-rule="evenodd" d="M80.5075 91.6685C79.4828 92.7148 69.0766 100.537 68.2095 101.853C67.3424 103.169 68.0519 103.966 69.353 103.12C70.6542 102.274 80.6264 94.5072 82.0841 92.7649C83.5428 91.0226 84.8034 88.8321 85.0402 87.2888C85.277 85.7455 86.0252 79.6211 86.0252 79.6211C86.0252 79.6211 84.6656 87.7369 83.5617 88.931C82.4587 90.1252 80.5075 91.6685 80.5075 91.6685Z" fill="#B2B1B2"/>
<path fill-rule="evenodd" clip-rule="evenodd" d="M26.3047 96.5112C26.3047 96.5112 36.0797 93.6438 47.8993 94.0705C59.7189 94.4971 68.2465 96.1429 68.2465 96.1429C68.2465 96.1429 45.0366 88.9638 26.3047 96.5112Z" fill="#B2B1B2"/>
<path opacity="0.28" fill-rule="evenodd" clip-rule="evenodd" d="M40.4303 5.12132C39.6415 5.66952 38.8933 7.91001 38.8933 10.0003C38.8933 12.0907 39.9179 15.2285 43.5053 15.6755C47.0926 16.1236 58.6414 15.4764 58.6414 16.1235C58.6414 18.4689 23.1202 18.2842 22.1022 14.9783C21.8257 14.0821 23.0872 14.2811 23.0089 11.6926C22.9306 9.10414 23.5505 4.13812 24.1808 4.0833C24.8111 4.02848 33.5718 5.76844 40.4303 5.12132Z" fill="#B2B1B2"/>
<path opacity="0.5" fill-rule="evenodd" clip-rule="evenodd" d="M63.489 5.71642C63.8834 6.66267 64.1193 10.7945 62.8587 12.4879C61.5972 14.1814 47.0131 13.7822 48.4718 14.1814C49.9305 14.5795 58.2071 14.0813 58.9959 15.1277C59.7847 16.1728 60.2904 17.4182 57.1928 17.6005C54.0942 17.7817 38.4213 16.9522 39.0912 17.7817C39.4639 18.2429 48.9558 18.2918 57.3994 17.7817C64.1532 17.3729 70.7589 16.3671 70.925 16.2253C71.2986 15.9059 70.2956 15.6365 69.8267 12.3342C69.3578 9.03305 69.086 3.07788 69.086 3.07788C69.086 3.07788 60.9669 2.33066 63.489 5.71642Z" fill="#B2B1B2"/>
<path opacity="0.38" fill-rule="evenodd" clip-rule="evenodd" d="M24.5134 17.7812C24.5134 17.7812 30.8191 19.3425 35.5697 19.4223C40.3204 19.5022 45.2032 20.6784 45.9146 21.8737C46.6251 23.069 45.1258 27.9481 42.2886 30.2374C39.4505 32.5268 33.2222 36.7098 32.4344 42.9832C31.6465 49.2566 32.8995 70.3124 33.0656 75.941C33.5789 93.3179 34.5941 94.1009 39.9241 101.331C39.9241 101.331 33.5864 100.987 26.9043 98.34C19.5891 95.4428 11.8277 90.0811 10.7568 86.5953C8.70742 79.9238 5.68812 41.8272 6.81469 36.8111C7.93938 31.7927 13.4892 23.069 24.5134 17.7812Z" fill="white"/>
<path opacity="0.5" fill-rule="evenodd" clip-rule="evenodd" d="M37.5173 14.7096C37.8721 13.4642 37.1625 6.59376 37.9504 6.24577C38.7392 5.89778 41.6952 5.16247 41.6952 7.98811C41.6952 10.8137 41.8528 14.7096 41.3008 15.7547C40.7489 16.7999 36.6889 16.7999 37.5173 14.7096Z" fill="white"/>
<path fill-rule="evenodd" clip-rule="evenodd" d="M21.8646 23.6677C19.0028 24.751 12.7199 31.6334 14.4541 33.9239C16.1883 36.2145 27.2304 37.9068 30.0261 36.2145C32.8218 34.5222 37.631 30.9505 38.2613 27.8508C38.8925 24.7499 32.1915 22.2734 21.8646 23.6677Z" fill="white"/>
<path fill-rule="evenodd" clip-rule="evenodd" d="M18.2396 41.6929C18.0028 43.8833 22.5752 46.9366 25.9653 45.808C29.3554 44.6794 30.5376 42.688 28.8827 41.3937C27.2268 40.0995 16.7423 38.7659 18.2396 41.6929Z" fill="white"/>
<path opacity="0.5" fill-rule="evenodd" clip-rule="evenodd" d="M34.4632 14.7793C34.6198 13.6936 34.3065 7.70033 34.6547 7.39643C35.0029 7.09253 36.3087 6.45137 36.3087 8.9159C36.3087 11.3816 36.3785 14.7793 36.1341 15.691C35.8907 16.6027 34.0971 16.6027 34.4632 14.7793Z" fill="white"/>
<path fill-rule="evenodd" clip-rule="evenodd" d="M20.4536 49.5083C22.0303 50.8026 27.0772 49.9731 27.2735 52.7773C27.4697 55.5827 26.0516 72.2672 27.2735 80.8013C28.4953 89.3354 30.4654 95.5099 31.8845 97.4012C33.3036 99.2925 25.9723 97.6991 23.4493 90.3317C20.9273 82.9643 16.906 47.816 20.4536 49.5083Z" fill="white"/>
<path opacity="0.56" fill-rule="evenodd" clip-rule="evenodd" d="M43.5476 42.4384C43.5476 42.4384 59.1555 43.1355 65.3837 42.0403C71.612 40.9451 85.0932 37.6237 86.0376 38.8369C86.9821 40.0501 80.3613 44.8278 65.3837 47.1184C50.4052 49.4089 26.047 41.9402 43.5476 42.4384Z" fill="#CBCBCD"/>
<path opacity="0.31" fill-rule="evenodd" clip-rule="evenodd" d="M64.833 24.8219C66.4096 27.1017 72.4803 32.7768 72.7162 40.3444C72.9521 47.9121 71.4547 78.8785 70.5093 83.3595C69.5629 87.8404 63.8083 96.104 59.8672 97.8964C55.9261 99.6888 52.1406 101.853 52.1406 101.853C52.1406 101.853 64.9887 99.7889 71.4934 94.8098C77.9981 89.8319 83.7527 87.1433 83.5951 79.4768C83.4376 71.809 87.5381 44.6276 86.9862 40.0477C86.4342 35.4678 85.0151 31.5744 81.4684 28.1993C74.541 21.6078 70.3621 22.1691 67.9089 9.77845C66.8078 4.21417 56.863 13.2977 64.833 24.8219Z" fill="white"/>
<path opacity="0.5" fill-rule="evenodd" clip-rule="evenodd" d="M52.1256 45.8067C52.1256 45.8067 55.5308 46.0951 54.9006 56.4788C54.2703 66.8613 52.3776 96.1081 51.0377 98.1984C49.6979 100.29 50.565 100.986 50.565 100.986C50.565 100.986 66.7258 94.1154 67.9081 84.2585C69.0903 74.4015 70.9019 46.8209 69.8008 44.9284C68.6987 43.0371 52.1256 44.1323 52.1256 45.8067Z" fill="#D2D2D1"/>
</svg>
