<svg xmlns="http://www.w3.org/2000/svg" viewBox="100 72 425 400" width="425" height="400">
<defs>
<linearGradient id="juiceG" x1="0" y1="0" x2="0" y2="1">
<stop offset="0" stop-color="#ffd35a"/><stop offset="0.5" stop-color="#ffb321"/><stop offset="1" stop-color="#f57c00"/>
</linearGradient>
<linearGradient id="glassG" x1="0" y1="0" x2="1" y2="0">
<stop offset="0" stop-color="#ffffff" stop-opacity="0.55"/><stop offset="0.18" stop-color="#e9eef2" stop-opacity="0.28"/>
<stop offset="0.5" stop-color="#cfd6da" stop-opacity="0.14"/><stop offset="0.82" stop-color="#e9eef2" stop-opacity="0.30"/>
<stop offset="1" stop-color="#ffffff" stop-opacity="0.5"/>
</linearGradient>
<linearGradient id="streamG" x1="0" y1="0" x2="0" y2="1">
<stop offset="0" stop-color="#ffdf7a"/><stop offset="0.4" stop-color="#ffb628"/><stop offset="1" stop-color="#ff9d12"/>
</linearGradient>
<clipPath id="jarClip"><path transform="translate(330 275)" d="M39.3029 0C39.3029 0 39.7617 6.72522 39.4172 8.10415C38.3975 12.1992 9.26585 26.3613 2.31704 40.6915C-2.95082 51.5535 2.31531 107.935 3.00258 121.04C3.68984 134.143 7.35467 161.042 24.9881 170.525C51.8883 184.991 125.42 184.991 152.321 170.525C169.954 161.042 173.619 134.143 174.306 121.04C174.993 107.936 180.259 51.5548 174.992 40.6915C168.043 26.3613 138.911 12.1992 137.891 8.10415C137.547 6.72522 138.006 0 138.006 0H39.3029Z"/></clipPath>
<clipPath id="glassClip">
<path d="M15.3419 0.398438C14.9659 21.9851 -0.200144 28.7592 0.00200288 81.1798C0.0505181 93.8273 0.00503397 131.383 2.72694 196.991C3.97419 227.056 25.7919 241.671 47.5631 241.315C69.3343 241.671 91.152 227.056 92.4003 196.991C95.1222 131.383 95.0757 93.8273 95.1242 81.1798C95.3263 28.7592 80.1613 21.9851 79.7853 0.398438H51.7405H43.3877H15.3419Z">
<animateTransform attributeName="transform" type="translate" additive="replace" calcMode="linear" dur="6.2s" repeatCount="indefinite" keyTimes="0.0;0.01;0.02;0.03;0.04;0.06;0.07;0.08;0.09;0.1;0.11;0.12;0.13;0.15;0.16;0.17;0.18;0.19;0.2;0.21;0.22;0.24;0.25;0.26;0.27;0.28;0.29;0.3;0.31;0.33;0.34;0.35;0.36;0.37;0.38;0.39;0.4;0.42;0.43;0.44;0.45;0.46;0.47;0.48;0.49;0.51;0.52;0.53;0.54;0.55;0.56;0.57;0.58;0.6;0.61;0.62;0.63;0.64;0.65;0.66;0.67;0.69;0.7;0.71;0.72;0.73;0.74;0.75;0.76;0.78;0.79;0.8;0.81;0.82;0.83;0.84;0.85;0.87;0.88;0.89;0.9;0.91;0.92;0.93;0.94;0.96;0.97;0.98;0.99;1.0" values="110 212;110.85 209.45;113.4 201.81;117.65 189.06;123.59 171.22;131.2 148.39;138.35 126.96;143.79 110.63;147.53 99.4;149.58 93.26;150.12 92.04;152.22 92.79;156.95 94.49;164.33 97.13;174.34 100.71;186.98 105.24;202.27 110.71;220.19 117.13;240.2 124.29;258.34 130.79;273.84 136.34;286.71 140.95;296.94 144.61;304.54 147.33;309.49 149.1;311.81 149.93;312.0 150.0;312.0 150.0;312.0 150.0;312.0 150.0;312.0 150.0;312.0 150.0;312.0 150.0;312.0 150.0;312.0 150.0;312.0 150.0;312.0 150.0;312.0 150.0;312.0 150.0;312.0 150.0;312.0 150.0;312.0 150.0;312.0 150.0;312.0 150.0;312.0 150.0;312.0 150.0;312.0 150.0;312.0 150.0;312.0 150.0;312.0 150.0;312.0 150.0;312.0 150.0;312.0 150.0;312.0 150.0;312.0 150.0;312.0 150.0;312.0 150.0;312.0 150.0;312.0 150.0;312.0 150.0;312.0 150.0;312.0 150.0;312.0 150.0;311.57 149.85;303.9 147.1;286.62 140.91;259.73 131.29;223.58 118.34;190.78 106.6;167.58 98.3;154.01 93.43;149.96 92.13;143.21 112.36;125.54 165.37;112.39 204.83;110 212;110 212;110 212;110 212;110 212;110 212;110 212;110 212;110 212;110 212;110 212;110 212;110 212;110 212;110 212"/>
<animateTransform attributeName="transform" type="rotate" additive="sum" calcMode="linear" dur="6.2s" repeatCount="indefinite" keyTimes="0.0;0.01;0.02;0.03;0.04;0.06;0.07;0.08;0.09;0.1;0.11;0.12;0.13;0.15;0.16;0.17;0.18;0.19;0.2;0.21;0.22;0.24;0.25;0.26;0.27;0.28;0.29;0.3;0.31;0.33;0.34;0.35;0.36;0.37;0.38;0.39;0.4;0.42;0.43;0.44;0.45;0.46;0.47;0.48;0.49;0.51;0.52;0.53;0.54;0.55;0.56;0.57;0.58;0.6;0.61;0.62;0.63;0.64;0.65;0.66;0.67;0.69;0.7;0.71;0.72;0.73;0.74;0.75;0.76;0.78;0.79;0.8;0.81;0.82;0.83;0.84;0.85;0.87;0.88;0.89;0.9;0.91;0.92;0.93;0.94;0.96;0.97;0.98;0.99;1.0" values="0 78 10;0.0 78 10;0.0 78 10;0.0 78 10;0.0 78 10;0.0 78 10;0.0 78 10;0.0 78 10;0.0 78 10;0.0 78 10;0.0 78 10;0.0 78 10;0.0 78 10;0.0 78 10;0.24 78 10;1.83 78 10;4.92 78 10;9.5 78 10;15.57 78 10;21.39 78 10;25.72 78 10;28.55 78 10;29.88 78 10;30.07 78 10;30.49 78 10;31.29 78 10;32.46 78 10;34.02 78 10;35.95 78 10;38.26 78 10;40.95 78 10;44.02 78 10;47.47 78 10;51.29 78 10;55.5 78 10;59.92 78 10;64.0 78 10;67.7 78 10;71.02 78 10;73.97 78 10;76.53 78 10;78.72 78 10;80.53 78 10;81.96 78 10;83.02 78 10;83.69 78 10;83.99 78 10;84.0 78 10;84.0 78 10;84.0 78 10;84.0 78 10;84.0 78 10;84.0 78 10;84.0 78 10;84.0 78 10;84.0 78 10;83.87 78 10;83.3 78 10;82.29 78 10;81.09 78 10;80.33 78 10;80.01 78 10;77.4 78 10;66.69 78 10;47.67 78 10;25.74 78 10;11.79 78 10;6.14 78 10;5.86 78 10;5.29 78 10;4.29 78 10;2.86 78 10;1.51 78 10;0.58 78 10;0.09 78 10;0 78 10;0 78 10;0 78 10;0 78 10;0 78 10;0 78 10;0 78 10;0 78 10;0 78 10;0 78 10;0 78 10;0 78 10;0 78 10;0 78 10;0 78 10"/>
</path>
</clipPath>
</defs>

<!-- ===== JAR (static) ===== -->
<g transform="translate(330 275)"><!-- body -->
          <path d="M39.3029 0C39.3029 0 39.7617 6.72522 39.4172 8.10415C38.3975 12.1992 9.26585 26.3613 2.31704 40.6915C-2.95082 51.5535 2.31531 107.935 3.00258 121.04C3.68984 134.143 7.35467 161.042 24.9881 170.525C51.8883 184.991 125.42 184.991 152.321 170.525C169.954 161.042 173.619 134.143 174.306 121.04C174.993 107.936 180.259 51.5548 174.992 40.6915C168.043 26.3613 138.911 12.1992 137.891 8.10415C137.547 6.72522 138.006 0 138.006 0H39.3029Z" fill="url(#glassG)"/>
          <path d="M39.3029 0C39.3029 0 39.7617 6.72522 39.4172 8.10415C38.3975 12.1992 9.26585 26.3613 2.31704 40.6915C-2.95082 51.5535 2.31531 107.935 3.00258 121.04C3.68984 134.143 7.35467 161.042 24.9881 170.525C51.8883 184.991 125.42 184.991 152.321 170.525C169.954 161.042 173.619 134.143 174.306 121.04C174.993 107.936 180.259 51.5548 174.992 40.6915C168.043 26.3613 138.911 12.1992 137.891 8.10415C137.547 6.72522 138.006 0 138.006 0H39.3029Z" fill="none" stroke="#cdbf9f" stroke-opacity="0.55" stroke-width="1"/></g>
<rect x="320" y="460" width="200" height="240" fill="url(#juiceG)" clip-path="url(#jarClip)">
<animate attributeName="y" calcMode="linear" dur="6.2s" repeatCount="indefinite" keyTimes="0.0;0.01;0.02;0.03;0.04;0.06;0.07;0.08;0.09;0.1;0.11;0.12;0.13;0.15;0.16;0.17;0.18;0.19;0.2;0.21;0.22;0.24;0.25;0.26;0.27;0.28;0.29;0.3;0.31;0.33;0.34;0.35;0.36;0.37;0.38;0.39;0.4;0.42;0.43;0.44;0.45;0.46;0.47;0.48;0.49;0.51;0.52;0.53;0.54;0.55;0.56;0.57;0.58;0.6;0.61;0.62;0.63;0.64;0.65;0.66;0.67;0.69;0.7;0.71;0.72;0.73;0.74;0.75;0.76;0.78;0.79;0.8;0.81;0.82;0.83;0.84;0.85;0.87;0.88;0.89;0.9;0.91;0.92;0.93;0.94;0.96;0.97;0.98;0.99;1.0" values="460;460.0;460.0;460.0;460.0;460.0;460.0;460.0;460.0;460.0;460.0;460.0;460.0;460.0;460.0;460.0;460.0;460.0;460.0;460.0;460.0;460.0;460.0;460.0;460.0;460.0;460.0;460.0;460.0;460.0;460.0;460.0;459.83;458.87;457.09;454.49;451.05;446.79;441.7;435.78;429.03;421.46;413.05;403.99;395.51;387.86;381.03;375.03;369.86;365.52;362.0;359.32;357.46;356.43;356.2;356.2;356.2;356.2;356.2;356.2;356.2;356.2;356.2;356.2;356.2;356.2;356.2;356.2;356.2;356.2;356.2;356.2;356.2;356.2;356.2;356.2;356.2;356.2;356.2;356.2;356.2;356.2;356.2;356.2;356.2;356.2;356.2;356.2;356.2;356.2"/>
</rect>
<g transform="translate(330 275)"><!-- left & right glass body highlights -->
          <path opacity="0.45" d="M28.4019 20.3253C32.2503 16.0154 35.2321 15.0457 36.9632 15.4758C38.6943 15.9059 51.7591 18.9243 57.1642 18.9243C62.5692 18.9243 59.3758 27.9756 56.0089 32.61C52.6421 37.2432 46.3843 48.5583 46.3715 55.5621C46.3598 62.5659 43.8946 111.662 46.3598 136.206C48.825 160.751 52.5374 172.65 49.3044 172.594C46.0713 172.539 19.4124 172.237 13.9945 142.241C10.3729 122.186 7.9089 85.286 9.3608 60.5132C10.765 36.5511 13.9969 36.4612 28.4019 20.3253Z" fill="#ffffff"/>
          <path opacity="0.4" d="M123.131 24.8274C131.789 30.3145 146.097 40.4818 148.854 49.2546C152.862 62.0026 152.881 105.447 148.863 130.436C144.847 155.425 132.138 168.858 122.456 173.082C119.5 174.37 122 170 124 165C131 150 134 110 132 86C130 62 124 40 117 30C111 21 119 22 123.131 24.8274Z" fill="#ffffff"/>
          <!-- rim band -->
          <path opacity="0.85" d="M39.3548 0.832346C39.4639 2.67787 39.6855 7.0219 39.4172 8.09976C38.3975 12.1948 9.26585 26.3569 2.31704 40.6871C-2.95082 51.5491 2.31531 107.93 3.00258 121.035C3.68984 134.139 7.35467 161.037 24.9881 170.52C51.8883 184.986 125.42 184.986 152.321 170.52C169.954 161.037 173.619 134.139 174.306 121.035C174.993 107.932 180.259 51.5504 174.992 40.6871C168.043 26.3569 138.911 12.1948 137.891 8.09976C137.621 7.01799 137.845 2.6492 137.954 0.814099" fill="none" stroke="#bcae8e" stroke-opacity="0.5" stroke-width="1.4"/>
          <path opacity="0.4" d="M40.5078 1.64453C40.5078 1.64453 53.7857 4.22384 65.4138 4.39457C77.0418 4.56401 127.001 5.15181 131.279 4.39457C135.554 3.63733 137.999 1.64583 137.999 1.64583L40.5078 1.64453Z" fill="#8d8068"/>
          <path opacity="0.7" d="M45.0979 6.83755C45.0979 6.83755 30.9285 19.1632 23.1989 23.9921C15.4694 28.821 5.45124 37.2275 4.73455 38.9518C2.51349 44.302 43.6247 50.8708 85.7486 51.5042C130.123 52.1729 173.414 44.4493 171.132 38.9518C170.417 37.2275 160.397 28.8223 152.668 23.9934C144.938 19.1645 130.769 6.83886 130.769 6.83886" fill="none" stroke="#ffffff" stroke-opacity="0.55" stroke-width="1.4"/>
          <!-- top opening ellipse -->
          <ellipse cx="88.6" cy="4" rx="49" ry="6.4" fill="#fff7e6" opacity="0.5"/>
          <ellipse cx="88.6" cy="4" rx="49" ry="6.4" fill="none" stroke="#c9b890" stroke-width="1.3" opacity="0.7"/></g>

<!-- pour point / splash -->
<ellipse cx="419" cy="320" rx="3" ry="1.4" fill="#fff3bf">
<animate attributeName="cy" calcMode="linear" dur="6.2s" repeatCount="indefinite" keyTimes="0.0;0.01;0.02;0.03;0.04;0.06;0.07;0.08;0.09;0.1;0.11;0.12;0.13;0.15;0.16;0.17;0.18;0.19;0.2;0.21;0.22;0.24;0.25;0.26;0.27;0.28;0.29;0.3;0.31;0.33;0.34;0.35;0.36;0.37;0.38;0.39;0.4;0.42;0.43;0.44;0.45;0.46;0.47;0.48;0.49;0.51;0.52;0.53;0.54;0.55;0.56;0.57;0.58;0.6;0.61;0.62;0.63;0.64;0.65;0.66;0.67;0.69;0.7;0.71;0.72;0.73;0.74;0.75;0.76;0.78;0.79;0.8;0.81;0.82;0.83;0.84;0.85;0.87;0.88;0.89;0.9;0.91;0.92;0.93;0.94;0.96;0.97;0.98;0.99;1.0" values="460;460.0;460.0;460.0;460.0;460.0;460.0;460.0;460.0;460.0;460.0;460.0;460.0;460.0;460.0;460.0;460.0;460.0;460.0;460.0;460.0;460.0;460.0;460.0;460.0;460.0;460.0;460.0;460.0;460.0;460.0;460.0;459.83;458.87;457.09;454.49;451.05;446.79;441.7;435.78;429.03;421.46;413.05;403.99;395.51;387.86;381.03;375.03;369.86;365.52;362.0;359.32;357.46;356.43;356.2;356.2;356.2;356.2;356.2;356.2;356.2;356.2;356.2;356.2;356.2;356.2;356.2;356.2;356.2;356.2;356.2;356.2;356.2;356.2;356.2;356.2;356.2;356.2;356.2;356.2;356.2;356.2;356.2;356.2;356.2;356.2;356.2;356.2;356.2;356.2"/>
<animate attributeName="rx" calcMode="linear" dur="6.2s" repeatCount="indefinite" keyTimes="0.0;0.01;0.02;0.03;0.04;0.06;0.07;0.08;0.09;0.1;0.11;0.12;0.13;0.15;0.16;0.17;0.18;0.19;0.2;0.21;0.22;0.24;0.25;0.26;0.27;0.28;0.29;0.3;0.31;0.33;0.34;0.35;0.36;0.37;0.38;0.39;0.4;0.42;0.43;0.44;0.45;0.46;0.47;0.48;0.49;0.51;0.52;0.53;0.54;0.55;0.56;0.57;0.58;0.6;0.61;0.62;0.63;0.64;0.65;0.66;0.67;0.69;0.7;0.71;0.72;0.73;0.74;0.75;0.76;0.78;0.79;0.8;0.81;0.82;0.83;0.84;0.85;0.87;0.88;0.89;0.9;0.91;0.92;0.93;0.94;0.96;0.97;0.98;0.99;1.0" values="2.0;2.0;2.0;2.0;2.0;2.0;2.0;2.0;2.0;2.0;2.0;2.0;2.0;2.0;2.0;2.0;2.0;2.0;2.0;2.0;2.0;2.0;2.0;2.0;2.0;2.0;2.0;2.0;2.0;2.0;2.0;2.0;2.35;4.34;6.81;7.19;6.43;5.79;5.5;5.68;6.25;7.0;7.67;7.99;7.85;7.31;6.56;5.88;5.52;5.62;2.0;2.0;2.0;2.0;2.0;2.0;2.0;2.0;2.0;2.0;2.0;2.0;2.0;2.0;2.0;2.0;2.0;2.0;2.0;2.0;2.0;2.0;2.0;2.0;2.0;2.0;2.0;2.0;2.0;2.0;2.0;2.0;2.0;2.0;2.0;2.0;2.0;2.0;2.0;2.0"/>
<animate attributeName="opacity" calcMode="linear" dur="6.2s" repeatCount="indefinite" keyTimes="0.0;0.01;0.02;0.03;0.04;0.06;0.07;0.08;0.09;0.1;0.11;0.12;0.13;0.15;0.16;0.17;0.18;0.19;0.2;0.21;0.22;0.24;0.25;0.26;0.27;0.28;0.29;0.3;0.31;0.33;0.34;0.35;0.36;0.37;0.38;0.39;0.4;0.42;0.43;0.44;0.45;0.46;0.47;0.48;0.49;0.51;0.52;0.53;0.54;0.55;0.56;0.57;0.58;0.6;0.61;0.62;0.63;0.64;0.65;0.66;0.67;0.69;0.7;0.71;0.72;0.73;0.74;0.75;0.76;0.78;0.79;0.8;0.81;0.82;0.83;0.84;0.85;0.87;0.88;0.89;0.9;0.91;0.92;0.93;0.94;0.96;0.97;0.98;0.99;1.0" values="0.0;0.0;0.0;0.0;0.0;0.0;0.0;0.0;0.0;0.0;0.0;0.0;0.0;0.0;0.0;0.0;0.0;0.0;0.0;0.0;0.0;0.0;0.0;0.0;0.0;0.0;0.0;0.0;0.0;0.0;0.0;0.0;0.03;0.23;0.48;0.5;0.41;0.33;0.3;0.32;0.39;0.48;0.56;0.6;0.58;0.52;0.43;0.35;0.3;0.31;0.0;0.0;0.0;0.0;0.0;0.0;0.0;0.0;0.0;0.0;0.0;0.0;0.0;0.0;0.0;0.0;0.0;0.0;0.0;0.0;0.0;0.0;0.0;0.0;0.0;0.0;0.0;0.0;0.0;0.0;0.0;0.0;0.0;0.0;0.0;0.0;0.0;0.0;0.0;0.0"/>
</ellipse>

<!-- ===== GLASS (tilts) ===== -->
<g>
<animateTransform attributeName="transform" type="translate" additive="replace" calcMode="linear" dur="6.2s" repeatCount="indefinite" keyTimes="0.0;0.01;0.02;0.03;0.04;0.06;0.07;0.08;0.09;0.1;0.11;0.12;0.13;0.15;0.16;0.17;0.18;0.19;0.2;0.21;0.22;0.24;0.25;0.26;0.27;0.28;0.29;0.3;0.31;0.33;0.34;0.35;0.36;0.37;0.38;0.39;0.4;0.42;0.43;0.44;0.45;0.46;0.47;0.48;0.49;0.51;0.52;0.53;0.54;0.55;0.56;0.57;0.58;0.6;0.61;0.62;0.63;0.64;0.65;0.66;0.67;0.69;0.7;0.71;0.72;0.73;0.74;0.75;0.76;0.78;0.79;0.8;0.81;0.82;0.83;0.84;0.85;0.87;0.88;0.89;0.9;0.91;0.92;0.93;0.94;0.96;0.97;0.98;0.99;1.0" values="110 212;110.85 209.45;113.4 201.81;117.65 189.06;123.59 171.22;131.2 148.39;138.35 126.96;143.79 110.63;147.53 99.4;149.58 93.26;150.12 92.04;152.22 92.79;156.95 94.49;164.33 97.13;174.34 100.71;186.98 105.24;202.27 110.71;220.19 117.13;240.2 124.29;258.34 130.79;273.84 136.34;286.71 140.95;296.94 144.61;304.54 147.33;309.49 149.1;311.81 149.93;312.0 150.0;312.0 150.0;312.0 150.0;312.0 150.0;312.0 150.0;312.0 150.0;312.0 150.0;312.0 150.0;312.0 150.0;312.0 150.0;312.0 150.0;312.0 150.0;312.0 150.0;312.0 150.0;312.0 150.0;312.0 150.0;312.0 150.0;312.0 150.0;312.0 150.0;312.0 150.0;312.0 150.0;312.0 150.0;312.0 150.0;312.0 150.0;312.0 150.0;312.0 150.0;312.0 150.0;312.0 150.0;312.0 150.0;312.0 150.0;312.0 150.0;312.0 150.0;312.0 150.0;312.0 150.0;312.0 150.0;312.0 150.0;312.0 150.0;311.57 149.85;303.9 147.1;286.62 140.91;259.73 131.29;223.58 118.34;190.78 106.6;167.58 98.3;154.01 93.43;149.96 92.13;143.21 112.36;125.54 165.37;112.39 204.83;110 212;110 212;110 212;110 212;110 212;110 212;110 212;110 212;110 212;110 212;110 212;110 212;110 212;110 212;110 212"/>
<animateTransform attributeName="transform" type="rotate" additive="sum" calcMode="linear" dur="6.2s" repeatCount="indefinite" keyTimes="0.0;0.01;0.02;0.03;0.04;0.06;0.07;0.08;0.09;0.1;0.11;0.12;0.13;0.15;0.16;0.17;0.18;0.19;0.2;0.21;0.22;0.24;0.25;0.26;0.27;0.28;0.29;0.3;0.31;0.33;0.34;0.35;0.36;0.37;0.38;0.39;0.4;0.42;0.43;0.44;0.45;0.46;0.47;0.48;0.49;0.51;0.52;0.53;0.54;0.55;0.56;0.57;0.58;0.6;0.61;0.62;0.63;0.64;0.65;0.66;0.67;0.69;0.7;0.71;0.72;0.73;0.74;0.75;0.76;0.78;0.79;0.8;0.81;0.82;0.83;0.84;0.85;0.87;0.88;0.89;0.9;0.91;0.92;0.93;0.94;0.96;0.97;0.98;0.99;1.0" values="0 78 10;0.0 78 10;0.0 78 10;0.0 78 10;0.0 78 10;0.0 78 10;0.0 78 10;0.0 78 10;0.0 78 10;0.0 78 10;0.0 78 10;0.0 78 10;0.0 78 10;0.0 78 10;0.24 78 10;1.83 78 10;4.92 78 10;9.5 78 10;15.57 78 10;21.39 78 10;25.72 78 10;28.55 78 10;29.88 78 10;30.07 78 10;30.49 78 10;31.29 78 10;32.46 78 10;34.02 78 10;35.95 78 10;38.26 78 10;40.95 78 10;44.02 78 10;47.47 78 10;51.29 78 10;55.5 78 10;59.92 78 10;64.0 78 10;67.7 78 10;71.02 78 10;73.97 78 10;76.53 78 10;78.72 78 10;80.53 78 10;81.96 78 10;83.02 78 10;83.69 78 10;83.99 78 10;84.0 78 10;84.0 78 10;84.0 78 10;84.0 78 10;84.0 78 10;84.0 78 10;84.0 78 10;84.0 78 10;84.0 78 10;83.87 78 10;83.3 78 10;82.29 78 10;81.09 78 10;80.33 78 10;80.01 78 10;77.4 78 10;66.69 78 10;47.67 78 10;25.74 78 10;11.79 78 10;6.14 78 10;5.86 78 10;5.29 78 10;4.29 78 10;2.86 78 10;1.51 78 10;0.58 78 10;0.09 78 10;0 78 10;0 78 10;0 78 10;0 78 10;0 78 10;0 78 10;0 78 10;0 78 10;0 78 10;0 78 10;0 78 10;0 78 10;0 78 10;0 78 10;0 78 10"/>
<!-- base / foot -->
          <path opacity="0.5" fill-rule="evenodd" clip-rule="evenodd" d="M47.0933 206.559C63.1357 206.559 76.1398 213.391 76.1398 221.816C76.1398 230.242 63.1347 237.076 47.0933 237.076C31.052 237.076 18.0469 230.244 18.0469 221.816C18.0469 213.388 31.051 206.559 47.0933 206.559Z" fill="#B2B1B2"/>
          <path fill-rule="evenodd" clip-rule="evenodd" d="M23.4766 215C23.4766 215 34.8089 208.223 48.5104 209.232C62.2119 210.24 72.0979 214.128 72.0979 214.128C72.0979 214.128 45.1932 197.163 23.4766 215Z" fill="#B2B1B2"/>
          <path fill-rule="evenodd" clip-rule="evenodd" d="M27.3906 232.13C27.6564 230.845 28.5024 228.666 29.783 228.666C31.0626 228.666 42.6921 232.327 46.4136 232.03C50.1352 231.732 61.5635 229.457 63.3859 227.974C65.2082 226.491 66.4616 226.984 66.9548 228.171C67.448 229.359 67.3722 231.732 67.1064 232.13C66.8406 232.528 44.1344 246.181 27.3906 232.13Z" fill="#959696"/>
          <!-- body -->
          <path opacity="0.29" fill-rule="evenodd" clip-rule="evenodd" d="M15.3419 0.398438C14.9659 21.9851 -0.200144 28.7592 0.00200288 81.1798C0.0505181 93.8273 0.00503397 131.383 2.72694 196.991C3.97419 227.056 25.7919 241.671 47.5631 241.315C69.3343 241.671 91.152 227.056 92.4003 196.991C95.1222 131.383 95.0757 93.8273 95.1242 81.1798C95.3263 28.7592 80.1613 21.9851 79.7853 0.398438H51.7405H43.3877H15.3419Z" fill="#CBCBCB"/>
</g>
<rect x="-50" y="40" width="740" height="700" fill="url(#juiceG)" clip-path="url(#glassClip)">
<animate attributeName="y" calcMode="linear" dur="6.2s" repeatCount="indefinite" keyTimes="0.0;0.01;0.02;0.03;0.04;0.06;0.07;0.08;0.09;0.1;0.11;0.12;0.13;0.15;0.16;0.17;0.18;0.19;0.2;0.21;0.22;0.24;0.25;0.26;0.27;0.28;0.29;0.3;0.31;0.33;0.34;0.35;0.36;0.37;0.38;0.39;0.4;0.42;0.43;0.44;0.45;0.46;0.47;0.48;0.49;0.51;0.52;0.53;0.54;0.55;0.56;0.57;0.58;0.6;0.61;0.62;0.63;0.64;0.65;0.66;0.67;0.69;0.7;0.71;0.72;0.73;0.74;0.75;0.76;0.78;0.79;0.8;0.81;0.82;0.83;0.84;0.85;0.87;0.88;0.89;0.9;0.91;0.92;0.93;0.94;0.96;0.97;0.98;0.99;1.0" values="227.0;224.45;216.81;204.06;186.22;163.39;141.96;125.63;114.4;108.26;107.04;107.79;109.49;112.13;115.59;119.28;123.12;127.11;131.06;134.5;137.83;141.0;144.0;146.62;148.19;148.63;148.12;147.36;146.44;145.35;144.13;143.73;144.58;146.42;148.95;151.87;155.17;158.69;162.26;165.8;169.33;172.89;176.6;179.9;183.65;188.75;193.33;197.35;200.83;203.74;206.1;207.91;209.15;209.85;210.0;210.0;210.0;210.0;211.81;216.74;219.91;221.22;231.97;275.3;343.17;399.58;415.2;408.79;397.31;389.53;385.53;385.34;406.49;460.05;499.78;507.0;507.0;507.0;507.0;507.0;507.0;507.0;507.0;507.0;507.0;507.0;507.0;507.0;507.0;507.0"/>
</rect>
<g>
<animateTransform attributeName="transform" type="translate" additive="replace" calcMode="linear" dur="6.2s" repeatCount="indefinite" keyTimes="0.0;0.01;0.02;0.03;0.04;0.06;0.07;0.08;0.09;0.1;0.11;0.12;0.13;0.15;0.16;0.17;0.18;0.19;0.2;0.21;0.22;0.24;0.25;0.26;0.27;0.28;0.29;0.3;0.31;0.33;0.34;0.35;0.36;0.37;0.38;0.39;0.4;0.42;0.43;0.44;0.45;0.46;0.47;0.48;0.49;0.51;0.52;0.53;0.54;0.55;0.56;0.57;0.58;0.6;0.61;0.62;0.63;0.64;0.65;0.66;0.67;0.69;0.7;0.71;0.72;0.73;0.74;0.75;0.76;0.78;0.79;0.8;0.81;0.82;0.83;0.84;0.85;0.87;0.88;0.89;0.9;0.91;0.92;0.93;0.94;0.96;0.97;0.98;0.99;1.0" values="110 212;110.85 209.45;113.4 201.81;117.65 189.06;123.59 171.22;131.2 148.39;138.35 126.96;143.79 110.63;147.53 99.4;149.58 93.26;150.12 92.04;152.22 92.79;156.95 94.49;164.33 97.13;174.34 100.71;186.98 105.24;202.27 110.71;220.19 117.13;240.2 124.29;258.34 130.79;273.84 136.34;286.71 140.95;296.94 144.61;304.54 147.33;309.49 149.1;311.81 149.93;312.0 150.0;312.0 150.0;312.0 150.0;312.0 150.0;312.0 150.0;312.0 150.0;312.0 150.0;312.0 150.0;312.0 150.0;312.0 150.0;312.0 150.0;312.0 150.0;312.0 150.0;312.0 150.0;312.0 150.0;312.0 150.0;312.0 150.0;312.0 150.0;312.0 150.0;312.0 150.0;312.0 150.0;312.0 150.0;312.0 150.0;312.0 150.0;312.0 150.0;312.0 150.0;312.0 150.0;312.0 150.0;312.0 150.0;312.0 150.0;312.0 150.0;312.0 150.0;312.0 150.0;312.0 150.0;312.0 150.0;312.0 150.0;312.0 150.0;311.57 149.85;303.9 147.1;286.62 140.91;259.73 131.29;223.58 118.34;190.78 106.6;167.58 98.3;154.01 93.43;149.96 92.13;143.21 112.36;125.54 165.37;112.39 204.83;110 212;110 212;110 212;110 212;110 212;110 212;110 212;110 212;110 212;110 212;110 212;110 212;110 212;110 212;110 212"/>
<animateTransform attributeName="transform" type="rotate" additive="sum" calcMode="linear" dur="6.2s" repeatCount="indefinite" keyTimes="0.0;0.01;0.02;0.03;0.04;0.06;0.07;0.08;0.09;0.1;0.11;0.12;0.13;0.15;0.16;0.17;0.18;0.19;0.2;0.21;0.22;0.24;0.25;0.26;0.27;0.28;0.29;0.3;0.31;0.33;0.34;0.35;0.36;0.37;0.38;0.39;0.4;0.42;0.43;0.44;0.45;0.46;0.47;0.48;0.49;0.51;0.52;0.53;0.54;0.55;0.56;0.57;0.58;0.6;0.61;0.62;0.63;0.64;0.65;0.66;0.67;0.69;0.7;0.71;0.72;0.73;0.74;0.75;0.76;0.78;0.79;0.8;0.81;0.82;0.83;0.84;0.85;0.87;0.88;0.89;0.9;0.91;0.92;0.93;0.94;0.96;0.97;0.98;0.99;1.0" values="0 78 10;0.0 78 10;0.0 78 10;0.0 78 10;0.0 78 10;0.0 78 10;0.0 78 10;0.0 78 10;0.0 78 10;0.0 78 10;0.0 78 10;0.0 78 10;0.0 78 10;0.0 78 10;0.24 78 10;1.83 78 10;4.92 78 10;9.5 78 10;15.57 78 10;21.39 78 10;25.72 78 10;28.55 78 10;29.88 78 10;30.07 78 10;30.49 78 10;31.29 78 10;32.46 78 10;34.02 78 10;35.95 78 10;38.26 78 10;40.95 78 10;44.02 78 10;47.47 78 10;51.29 78 10;55.5 78 10;59.92 78 10;64.0 78 10;67.7 78 10;71.02 78 10;73.97 78 10;76.53 78 10;78.72 78 10;80.53 78 10;81.96 78 10;83.02 78 10;83.69 78 10;83.99 78 10;84.0 78 10;84.0 78 10;84.0 78 10;84.0 78 10;84.0 78 10;84.0 78 10;84.0 78 10;84.0 78 10;84.0 78 10;83.87 78 10;83.3 78 10;82.29 78 10;81.09 78 10;80.33 78 10;80.01 78 10;77.4 78 10;66.69 78 10;47.67 78 10;25.74 78 10;11.79 78 10;6.14 78 10;5.86 78 10;5.29 78 10;4.29 78 10;2.86 78 10;1.51 78 10;0.58 78 10;0.09 78 10;0 78 10;0 78 10;0 78 10;0 78 10;0 78 10;0 78 10;0 78 10;0 78 10;0 78 10;0 78 10;0 78 10;0 78 10;0 78 10;0 78 10;0 78 10"/>
<path opacity="0.5" fill-rule="evenodd" clip-rule="evenodd" d="M15.3419 0.398438C14.9659 21.9851 -0.200144 28.7592 0.00200288 81.1798C0.0505181 93.8273 0.00503397 131.383 2.72694 196.991C3.96004 226.711 25.2946 241.331 46.8141 241.32C46.803 240.828 46.7788 240.327 46.7303 239.814C46.7303 239.814 21.4538 239.224 12.4633 221.756C3.47287 204.289 5.10722 188.61 4.25214 175.749C3.39807 162.886 2.25797 83.487 4.25114 61.7186C6.24431 39.9502 14.408 27.063 16.5912 13.7307C17.5221 8.04962 17.987 3.61694 18.2144 0.398438H15.3419ZM47.4095 241.315H47.5631C69.3343 241.671 91.152 227.056 92.4003 196.991C95.1222 131.383 95.0757 93.8273 95.1242 81.1798C95.3263 28.7592 80.1613 21.9851 79.7853 0.398438H76.0082C76.2366 3.61694 76.7015 8.04962 77.6314 13.7307C79.8146 27.063 87.9783 39.9502 89.9715 61.7186C91.9646 83.4844 90.8245 162.886 89.9705 175.749C89.1164 188.613 90.7507 204.289 81.7593 221.756C72.7688 239.224 47.4923 239.814 47.4923 239.814C47.4448 240.325 47.4206 240.822 47.4095 241.315Z" fill="#CBCBCB"/>
          <path opacity="0.3" fill-rule="evenodd" clip-rule="evenodd" d="M15.3473 0.00390625C15.2533 5.40583 14.2325 10.2784 12.7578 14.7716C13.813 16.7364 17.4426 19.0779 26.3057 21.3509C38.581 24.4983 56.3811 24.4983 68.6554 21.3509C77.8471 18.9936 81.4089 16.5652 82.3094 14.5556C80.8732 10.1335 79.8827 5.71397 79.7897 0.39896H51.7448H43.3921L15.3473 0.00390625Z" fill="#CBCBCB"/>
          <path opacity="0.1" fill-rule="evenodd" clip-rule="evenodd" d="M15.3438 0.00265245C15.3438 0.00265245 18.1556 2.83134 19.9406 2.87875C21.7255 2.92879 53.4666 2.87875 53.4666 2.87875C53.4666 2.87875 77.2734 3.12635 78.6026 2.03596C79.9317 0.948196 80.3269 0 80.3269 0H15.3438V0.00265245Z" fill="#B8B7B8"/>
          <path opacity="0.3" fill-rule="evenodd" clip-rule="evenodd" d="M26.3359 9.97266C26.3359 9.97266 35.0313 11.1605 40.0435 10.9629C45.0558 10.7654 73.5696 10.3677 73.5696 10.3677C73.5696 10.3677 47.5988 18.4825 26.3359 9.97266Z" fill="white"/>
          <path opacity="0.3" fill-rule="evenodd" clip-rule="evenodd" d="M18.6879 3.30078C18.6879 3.30078 19.2772 7.00128 18.7071 9.84578C18.1381 12.6903 17.9481 15.7824 19.4672 16.6489C20.9853 17.5154 30.0506 21.3476 41.0625 21.2238C52.0735 21.1 64.6996 20.8525 67.5943 18.8745C70.4901 16.8965 56.8209 17.5128 48.9897 17.2652C41.1586 17.0176 28.5335 15.9062 26.3978 12.9379C24.2621 9.9696 24.3531 8.27605 30.3366 9.59822C36.3212 10.9204 61.5663 8.73171 60.7122 7.74404C59.8582 6.75373 25.666 9.23474 18.6879 3.30078Z" fill="#B2B1B2"/>
          <path fill-rule="evenodd" clip-rule="evenodd" d="M17.0937 4.27344C17.0937 4.27344 15.516 17.2581 12.0148 26.7819C8.51362 36.3057 5.25097 42.6137 3.19817 66.8552C1.14536 91.0968 2.85554 153.889 3.2103 165.533C3.56507 177.177 3.9451 197.955 6.36581 207.6C8.78652 217.248 14.481 226.522 14.481 226.522C14.481 226.522 4.15433 215.07 3.2103 200.305C2.26628 185.54 0.0295184 96.5961 0.621809 76.7504C1.21511 56.9047 3.61156 42.1264 7.07636 32.2312C10.5412 22.336 17.0937 4.27344 17.0937 4.27344Z" fill="#B2B1B2"/>
          <path fill-rule="evenodd" clip-rule="evenodd" d="M78.0625 4.27344C78.0625 4.27344 79.6403 17.2581 83.1404 26.7819C86.6416 36.3057 89.9043 42.6137 91.9571 66.8552C94.0099 91.0968 92.3007 153.889 91.9459 165.533C91.5912 177.177 91.2111 197.955 88.7904 207.6C86.3697 217.248 80.6752 226.522 80.6752 226.522C80.6752 226.522 91.0019 215.07 91.9459 200.305C92.89 185.54 95.1267 96.5961 94.5344 76.7504C93.9411 56.9047 91.5447 42.1264 88.0799 32.2312C84.6151 22.336 78.0625 4.27344 78.0625 4.27344Z" fill="#B2B1B2"/>
          <path opacity="0.56" fill-rule="evenodd" clip-rule="evenodd" d="M41.6525 81.1881C41.6525 81.1881 56.6872 82.5735 62.6869 80.3953C68.6866 78.2198 81.6725 71.6195 82.5832 74.0294C83.4928 76.4394 77.1151 85.9368 62.6869 90.4881C48.2586 95.0393 24.7944 80.1978 41.6525 81.1881Z" fill="#CBCBCD"/>
          <path opacity="0.5" fill-rule="evenodd" clip-rule="evenodd" d="M50.513 89.1306C50.513 89.1306 57.2657 100.783 56.4541 128.332C55.6424 155.884 58.051 223.102 49.1131 228.156C40.1752 233.21 48.5046 235.554 48.5046 235.554C48.5046 235.554 68.7446 242.147 72.4499 217.881C76.1533 193.616 74.6614 91.8224 73.2464 86.8023C71.8303 81.7797 50.513 84.6874 50.513 89.1306Z" fill="#D2D2D1"/>
          <path opacity="0.3" fill-rule="evenodd" clip-rule="evenodd" d="M18.4323 27C16.5332 32.934 6.83114 46.93 5.61724 74.7772C4.39628 102.793 3.98896 202.511 14.2813 217.993C21.1502 228.325 40.0873 231.636 40.0873 231.636C40.0873 231.636 30.0821 214.016 28.3861 186.169C26.69 158.321 23.294 89.3369 25.7036 70.7844C28.1131 52.2318 33.5236 38.8758 45.0096 36.6503C56.4956 34.4247 50.136 29.4784 44.0605 28.2405C37.985 27.0027 20.8985 33.0788 18.4323 27Z" fill="white"/>
          <path opacity="0.3" fill-rule="evenodd" clip-rule="evenodd" d="M12.053 64.9531C10.0164 64.9531 9.43828 75.6595 17.3988 82.2677C25.3604 88.8733 51.877 91.9153 58.0475 86.9691C67.9204 79.0519 17.232 76.8684 12.053 64.9531Z" fill="white"/>
          <path opacity="0.3" fill-rule="evenodd" clip-rule="evenodd" d="M19.1232 93.4516C16.4649 88.6791 12.6252 88.0101 12.0551 96.915C11.4861 105.82 15.4087 188.187 19.9328 198.575C24.4568 208.965 21.5469 109.033 19.1232 93.4516Z" fill="white"/>
          <path opacity="0.3" fill-rule="evenodd" clip-rule="evenodd" d="M17.1246 62.6558C16.3656 58.9448 18.0262 46.2078 21.9185 44.1033C25.8109 41.9989 23.2952 57.3355 22.6776 62.0369C22.0601 66.7356 19.6868 68.0973 17.1246 62.6558Z" fill="white"/>
          <path opacity="0.3" fill-rule="evenodd" clip-rule="evenodd" d="M67.0993 40.2891C67.0993 40.2891 76.5527 61.0672 77.7605 109.835C78.9684 158.605 75.8098 204.164 74.128 214.299C72.4451 224.434 65.4266 228.49 67.3035 230.11C69.1804 231.727 84.8731 223.971 88.4107 194.751C91.9482 165.532 92.7133 75.0632 88.4107 54.1429C84.108 33.22 78.2629 26.7039 77.7484 18.2468C77.2339 9.78966 77.8081 4.2929 76.1899 4.4404C74.5717 4.58526 63.7083 7.01363 62.736 7.01363C61.7637 7.01363 62.548 29.2719 67.0993 40.2891Z" fill="white"/>
</g>

<!-- ===== STREAM ===== -->
<path fill="none" stroke="url(#streamG)" stroke-linecap="round" stroke-width="6" opacity="0">
<animate attributeName="d" calcMode="linear" dur="6.2s" repeatCount="indefinite" keyTimes="0.0;0.01;0.02;0.03;0.04;0.06;0.07;0.08;0.09;0.1;0.11;0.12;0.13;0.15;0.16;0.17;0.18;0.19;0.2;0.21;0.22;0.24;0.25;0.26;0.27;0.28;0.29;0.3;0.31;0.33;0.34;0.35;0.36;0.37;0.38;0.39;0.4;0.42;0.43;0.44;0.45;0.46;0.47;0.48;0.49;0.51;0.52;0.53;0.54;0.55;0.56;0.57;0.58;0.6;0.61;0.62;0.63;0.64;0.65;0.66;0.67;0.69;0.7;0.71;0.72;0.73;0.74;0.75;0.76;0.78;0.79;0.8;0.81;0.82;0.83;0.84;0.85;0.87;0.88;0.89;0.9;0.91;0.92;0.93;0.94;0.96;0.97;0.98;0.99;1.0" values="M 190 226 C 194 248, 293.05 324.28, 419 460;M 190.85 223.45 C 194.85 245.45, 293.52 322.8, 419 460.0;M 193.4 215.81 C 197.4 237.81, 294.92 318.37, 419 460.0;M 197.65 203.06 C 201.65 225.06, 297.26 310.98, 419 460.0;M 203.59 185.22 C 207.59 207.22, 300.53 300.63, 419 460.0;M 211.2 162.39 C 215.2 184.39, 304.71 287.39, 419 460.0;M 218.35 140.96 C 222.35 162.96, 308.64 274.96, 419 460.0;M 223.79 124.63 C 227.79 146.63, 311.63 265.49, 419 460.0;M 227.53 113.4 C 231.53 135.4, 313.69 258.97, 419 460.0;M 229.58 107.26 C 233.58 129.26, 314.82 255.41, 419 460.0;M 230.12 106.04 C 234.12 128.04, 315.11 254.7, 419 460.0;M 232.22 106.79 C 236.22 128.79, 316.27 255.14, 419 460.0;M 236.95 108.49 C 240.95 130.49, 318.87 256.12, 419 460.0;M 244.33 111.13 C 248.33 133.13, 322.93 257.65, 419 460.0;M 254.34 114.71 C 258.34 136.71, 328.44 259.73, 419 460.0;M 266.98 119.24 C 270.98 141.24, 335.39 262.36, 419 460.0;M 282.27 124.71 C 286.27 146.71, 343.8 265.53, 419 460.0;M 300.19 131.13 C 304.19 153.13, 353.66 269.26, 419 460.0;M 320.2 138.29 C 324.2 160.29, 364.66 273.41, 419 460.0;M 338.34 144.79 C 342.34 166.79, 374.64 277.18, 419 460.0;M 353.84 150.34 C 357.84 172.34, 383.16 280.4, 419 460.0;M 366.71 154.95 C 370.71 176.95, 390.24 283.07, 419 460.0;M 376.94 158.61 C 380.94 180.61, 395.87 285.19, 419 460.0;M 384.54 161.33 C 388.54 183.33, 400.04 286.77, 419 460.0;M 389.49 163.1 C 393.49 185.1, 402.77 287.8, 419 460.0;M 391.81 163.93 C 395.81 185.93, 404.05 288.28, 419 460.0;M 392.0 164.0 C 396.0 186.0, 404.15 288.32, 419 460.0;M 392.0 164.0 C 396.0 186.0, 404.15 288.32, 419 460.0;M 392.0 164.0 C 396.0 186.0, 404.15 288.32, 419 460.0;M 392.0 164.0 C 396.0 186.0, 404.15 288.32, 419 460.0;M 392.0 164.0 C 396.0 186.0, 404.15 288.32, 419 460.0;M 392.0 164.0 C 396.0 186.0, 404.15 288.32, 419 460.0;M 392.0 164.0 C 396.0 186.0, 404.28 288.25, 419 459.83;M 392.0 164.0 C 396.0 186.0, 404.81 287.85, 419 458.87;M 392.0 164.0 C 396.0 186.0, 404.91 287.1, 419 457.09;M 392.0 164.0 C 396.0 186.0, 404.1 286.0, 419 454.49;M 392.0 164.0 C 396.0 186.0, 403.15 284.56, 419 451.05;M 392.0 164.0 C 396.0 186.0, 402.4 282.77, 419 446.79;M 392.0 164.0 C 396.0 186.0, 401.99 280.63, 419 441.7;M 392.0 164.0 C 396.0 186.0, 402.02 278.15, 419 435.78;M 392.0 164.0 C 396.0 186.0, 402.47 275.31, 419 429.03;M 392.0 164.0 C 396.0 186.0, 403.25 272.13, 419 421.46;M 392.0 164.0 C 396.0 186.0, 404.21 268.6, 419 413.05;M 392.0 164.0 C 396.0 186.0, 405.16 264.8, 419 403.99;M 392.0 164.0 C 396.0 186.0, 405.91 261.23, 419 395.51;M 392.0 164.0 C 396.0 186.0, 406.31 258.02, 419 387.86;M 392.0 164.0 C 396.0 186.0, 406.28 255.15, 419 381.03;M 392.0 164.0 C 396.0 186.0, 405.83 252.63, 419 375.03;M 392.0 164.0 C 396.0 186.0, 405.04 250.46, 419 369.86;M 392.0 164.0 C 396.0 186.0, 404.08 248.64, 419 365.52;M 392.0 164.0 C 396.0 186.0, 404.15 247.16, 419 362.0;M 392.0 164.0 C 396.0 186.0, 404.15 246.03, 419 359.32;M 392.0 164.0 C 396.0 186.0, 404.15 245.25, 419 357.46;M 392.0 164.0 C 396.0 186.0, 404.15 244.82, 419 356.43;M 392.0 164.0 C 396.0 186.0, 404.15 244.72, 419 356.2;M 392.0 164.0 C 396.0 186.0, 404.15 244.72, 419 356.2;M 392.0 164.0 C 396.0 186.0, 404.15 244.72, 419 356.2;M 392.0 164.0 C 396.0 186.0, 404.15 244.72, 419 356.2;M 392.0 164.0 C 396.0 186.0, 404.15 244.72, 419 356.2;M 392.0 164.0 C 396.0 186.0, 404.15 244.72, 419 356.2;M 392.0 164.0 C 396.0 186.0, 404.15 244.72, 419 356.2;M 392.0 164.0 C 396.0 186.0, 404.15 244.72, 419 356.2;M 392.0 164.0 C 396.0 186.0, 404.15 244.72, 419 356.2;M 391.57 163.85 C 395.57 185.85, 403.92 244.64, 419 356.2;M 383.9 161.1 C 387.9 183.1, 399.7 243.04, 419 356.2;M 366.62 154.91 C 370.62 176.91, 390.19 239.45, 419 356.2;M 339.73 145.29 C 343.73 167.29, 375.4 233.87, 419 356.2;M 303.58 132.34 C 307.58 154.34, 355.52 226.36, 419 356.2;M 270.78 120.6 C 274.78 142.6, 337.48 219.55, 419 356.2;M 247.58 112.3 C 251.58 134.3, 324.72 214.74, 419 356.2;M 234.01 107.43 C 238.01 129.43, 317.25 211.92, 419 356.2;M 229.96 106.13 C 233.96 128.13, 315.03 211.16, 419 356.2;M 223.21 126.36 C 227.21 148.36, 311.32 222.89, 419 356.2;M 205.54 179.37 C 209.54 201.37, 301.6 253.64, 419 356.2;M 192.39 218.83 C 196.39 240.83, 294.36 276.52, 419 356.2;M 190 226 C 194 248, 293.05 280.68, 419 356.2;M 190 226 C 194 248, 293.05 280.68, 419 356.2;M 190 226 C 194 248, 293.05 280.68, 419 356.2;M 190 226 C 194 248, 293.05 280.68, 419 356.2;M 190 226 C 194 248, 293.05 280.68, 419 356.2;M 190 226 C 194 248, 293.05 280.68, 419 356.2;M 190 226 C 194 248, 293.05 280.68, 419 356.2;M 190 226 C 194 248, 293.05 280.68, 419 356.2;M 190 226 C 194 248, 293.05 280.68, 419 356.2;M 190 226 C 194 248, 293.05 280.68, 419 356.2;M 190 226 C 194 248, 293.05 280.68, 419 356.2;M 190 226 C 194 248, 293.05 280.68, 419 356.2;M 190 226 C 194 248, 293.05 280.68, 419 356.2;M 190 226 C 194 248, 293.05 280.68, 419 356.2;M 190 226 C 194 248, 293.05 280.68, 419 356.2"/>
<animate attributeName="stroke-width" calcMode="linear" dur="6.2s" repeatCount="indefinite" keyTimes="0.0;0.01;0.02;0.03;0.04;0.06;0.07;0.08;0.09;0.1;0.11;0.12;0.13;0.15;0.16;0.17;0.18;0.19;0.2;0.21;0.22;0.24;0.25;0.26;0.27;0.28;0.29;0.3;0.31;0.33;0.34;0.35;0.36;0.37;0.38;0.39;0.4;0.42;0.43;0.44;0.45;0.46;0.47;0.48;0.49;0.51;0.52;0.53;0.54;0.55;0.56;0.57;0.58;0.6;0.61;0.62;0.63;0.64;0.65;0.66;0.67;0.69;0.7;0.71;0.72;0.73;0.74;0.75;0.76;0.78;0.79;0.8;0.81;0.82;0.83;0.84;0.85;0.87;0.88;0.89;0.9;0.91;0.92;0.93;0.94;0.96;0.97;0.98;0.99;1.0" values="0.1;0.1;0.1;0.1;0.1;0.1;0.1;0.1;0.1;0.1;0.1;0.1;0.1;0.1;0.1;0.1;0.1;0.1;0.1;0.1;0.1;0.1;0.1;0.1;0.1;0.1;0.1;0.1;0.1;0.1;0.1;0.1;0.42;2.73;5.82;6.99;7.0;7.0;7.0;7.0;7.0;7.0;7.0;7.0;7.0;7.0;7.0;7.0;7.0;7.0;0.1;0.1;0.1;0.1;0.1;0.1;0.1;0.1;0.1;0.1;0.1;0.1;0.1;0.1;0.1;0.1;0.1;0.1;0.1;0.1;0.1;0.1;0.1;0.1;0.1;0.1;0.1;0.1;0.1;0.1;0.1;0.1;0.1;0.1;0.1;0.1;0.1;0.1;0.1;0.1"/>
<animate attributeName="opacity" calcMode="linear" dur="6.2s" repeatCount="indefinite" keyTimes="0.0;0.01;0.02;0.03;0.04;0.06;0.07;0.08;0.09;0.1;0.11;0.12;0.13;0.15;0.16;0.17;0.18;0.19;0.2;0.21;0.22;0.24;0.25;0.26;0.27;0.28;0.29;0.3;0.31;0.33;0.34;0.35;0.36;0.37;0.38;0.39;0.4;0.42;0.43;0.44;0.45;0.46;0.47;0.48;0.49;0.51;0.52;0.53;0.54;0.55;0.56;0.57;0.58;0.6;0.61;0.62;0.63;0.64;0.65;0.66;0.67;0.69;0.7;0.71;0.72;0.73;0.74;0.75;0.76;0.78;0.79;0.8;0.81;0.82;0.83;0.84;0.85;0.87;0.88;0.89;0.9;0.91;0.92;0.93;0.94;0.96;0.97;0.98;0.99;1.0" values="0.0;0.0;0.0;0.0;0.0;0.0;0.0;0.0;0.0;0.0;0.0;0.0;0.0;0.0;0.0;0.0;0.0;0.0;0.0;0.0;0.0;0.0;0.0;0.0;0.0;0.0;0.0;0.0;0.0;0.0;0.0;0.0;0.06;0.37;0.79;0.95;0.95;0.95;0.95;0.95;0.95;0.95;0.95;0.95;0.95;0.95;0.95;0.95;0.95;0.95;0.0;0.0;0.0;0.0;0.0;0.0;0.0;0.0;0.0;0.0;0.0;0.0;0.0;0.0;0.0;0.0;0.0;0.0;0.0;0.0;0.0;0.0;0.0;0.0;0.0;0.0;0.0;0.0;0.0;0.0;0.0;0.0;0.0;0.0;0.0;0.0;0.0;0.0;0.0;0.0"/>
</path>
<path fill="none" stroke="#fff3c4" stroke-linecap="round" stroke-width="2" opacity="0">
<animate attributeName="d" calcMode="linear" dur="6.2s" repeatCount="indefinite" keyTimes="0.0;0.01;0.02;0.03;0.04;0.06;0.07;0.08;0.09;0.1;0.11;0.12;0.13;0.15;0.16;0.17;0.18;0.19;0.2;0.21;0.22;0.24;0.25;0.26;0.27;0.28;0.29;0.3;0.31;0.33;0.34;0.35;0.36;0.37;0.38;0.39;0.4;0.42;0.43;0.44;0.45;0.46;0.47;0.48;0.49;0.51;0.52;0.53;0.54;0.55;0.56;0.57;0.58;0.6;0.61;0.62;0.63;0.64;0.65;0.66;0.67;0.69;0.7;0.71;0.72;0.73;0.74;0.75;0.76;0.78;0.79;0.8;0.81;0.82;0.83;0.84;0.85;0.87;0.88;0.89;0.9;0.91;0.92;0.93;0.94;0.96;0.97;0.98;0.99;1.0" values="M 190 226 C 194 248, 293.05 324.28, 419 460;M 190.85 223.45 C 194.85 245.45, 293.52 322.8, 419 460.0;M 193.4 215.81 C 197.4 237.81, 294.92 318.37, 419 460.0;M 197.65 203.06 C 201.65 225.06, 297.26 310.98, 419 460.0;M 203.59 185.22 C 207.59 207.22, 300.53 300.63, 419 460.0;M 211.2 162.39 C 215.2 184.39, 304.71 287.39, 419 460.0;M 218.35 140.96 C 222.35 162.96, 308.64 274.96, 419 460.0;M 223.79 124.63 C 227.79 146.63, 311.63 265.49, 419 460.0;M 227.53 113.4 C 231.53 135.4, 313.69 258.97, 419 460.0;M 229.58 107.26 C 233.58 129.26, 314.82 255.41, 419 460.0;M 230.12 106.04 C 234.12 128.04, 315.11 254.7, 419 460.0;M 232.22 106.79 C 236.22 128.79, 316.27 255.14, 419 460.0;M 236.95 108.49 C 240.95 130.49, 318.87 256.12, 419 460.0;M 244.33 111.13 C 248.33 133.13, 322.93 257.65, 419 460.0;M 254.34 114.71 C 258.34 136.71, 328.44 259.73, 419 460.0;M 266.98 119.24 C 270.98 141.24, 335.39 262.36, 419 460.0;M 282.27 124.71 C 286.27 146.71, 343.8 265.53, 419 460.0;M 300.19 131.13 C 304.19 153.13, 353.66 269.26, 419 460.0;M 320.2 138.29 C 324.2 160.29, 364.66 273.41, 419 460.0;M 338.34 144.79 C 342.34 166.79, 374.64 277.18, 419 460.0;M 353.84 150.34 C 357.84 172.34, 383.16 280.4, 419 460.0;M 366.71 154.95 C 370.71 176.95, 390.24 283.07, 419 460.0;M 376.94 158.61 C 380.94 180.61, 395.87 285.19, 419 460.0;M 384.54 161.33 C 388.54 183.33, 400.04 286.77, 419 460.0;M 389.49 163.1 C 393.49 185.1, 402.77 287.8, 419 460.0;M 391.81 163.93 C 395.81 185.93, 404.05 288.28, 419 460.0;M 392.0 164.0 C 396.0 186.0, 404.15 288.32, 419 460.0;M 392.0 164.0 C 396.0 186.0, 404.15 288.32, 419 460.0;M 392.0 164.0 C 396.0 186.0, 404.15 288.32, 419 460.0;M 392.0 164.0 C 396.0 186.0, 404.15 288.32, 419 460.0;M 392.0 164.0 C 396.0 186.0, 404.15 288.32, 419 460.0;M 392.0 164.0 C 396.0 186.0, 404.15 288.32, 419 460.0;M 392.0 164.0 C 396.0 186.0, 404.28 288.25, 419 459.83;M 392.0 164.0 C 396.0 186.0, 404.81 287.85, 419 458.87;M 392.0 164.0 C 396.0 186.0, 404.91 287.1, 419 457.09;M 392.0 164.0 C 396.0 186.0, 404.1 286.0, 419 454.49;M 392.0 164.0 C 396.0 186.0, 403.15 284.56, 419 451.05;M 392.0 164.0 C 396.0 186.0, 402.4 282.77, 419 446.79;M 392.0 164.0 C 396.0 186.0, 401.99 280.63, 419 441.7;M 392.0 164.0 C 396.0 186.0, 402.02 278.15, 419 435.78;M 392.0 164.0 C 396.0 186.0, 402.47 275.31, 419 429.03;M 392.0 164.0 C 396.0 186.0, 403.25 272.13, 419 421.46;M 392.0 164.0 C 396.0 186.0, 404.21 268.6, 419 413.05;M 392.0 164.0 C 396.0 186.0, 405.16 264.8, 419 403.99;M 392.0 164.0 C 396.0 186.0, 405.91 261.23, 419 395.51;M 392.0 164.0 C 396.0 186.0, 406.31 258.02, 419 387.86;M 392.0 164.0 C 396.0 186.0, 406.28 255.15, 419 381.03;M 392.0 164.0 C 396.0 186.0, 405.83 252.63, 419 375.03;M 392.0 164.0 C 396.0 186.0, 405.04 250.46, 419 369.86;M 392.0 164.0 C 396.0 186.0, 404.08 248.64, 419 365.52;M 392.0 164.0 C 396.0 186.0, 404.15 247.16, 419 362.0;M 392.0 164.0 C 396.0 186.0, 404.15 246.03, 419 359.32;M 392.0 164.0 C 396.0 186.0, 404.15 245.25, 419 357.46;M 392.0 164.0 C 396.0 186.0, 404.15 244.82, 419 356.43;M 392.0 164.0 C 396.0 186.0, 404.15 244.72, 419 356.2;M 392.0 164.0 C 396.0 186.0, 404.15 244.72, 419 356.2;M 392.0 164.0 C 396.0 186.0, 404.15 244.72, 419 356.2;M 392.0 164.0 C 396.0 186.0, 404.15 244.72, 419 356.2;M 392.0 164.0 C 396.0 186.0, 404.15 244.72, 419 356.2;M 392.0 164.0 C 396.0 186.0, 404.15 244.72, 419 356.2;M 392.0 164.0 C 396.0 186.0, 404.15 244.72, 419 356.2;M 392.0 164.0 C 396.0 186.0, 404.15 244.72, 419 356.2;M 392.0 164.0 C 396.0 186.0, 404.15 244.72, 419 356.2;M 391.57 163.85 C 395.57 185.85, 403.92 244.64, 419 356.2;M 383.9 161.1 C 387.9 183.1, 399.7 243.04, 419 356.2;M 366.62 154.91 C 370.62 176.91, 390.19 239.45, 419 356.2;M 339.73 145.29 C 343.73 167.29, 375.4 233.87, 419 356.2;M 303.58 132.34 C 307.58 154.34, 355.52 226.36, 419 356.2;M 270.78 120.6 C 274.78 142.6, 337.48 219.55, 419 356.2;M 247.58 112.3 C 251.58 134.3, 324.72 214.74, 419 356.2;M 234.01 107.43 C 238.01 129.43, 317.25 211.92, 419 356.2;M 229.96 106.13 C 233.96 128.13, 315.03 211.16, 419 356.2;M 223.21 126.36 C 227.21 148.36, 311.32 222.89, 419 356.2;M 205.54 179.37 C 209.54 201.37, 301.6 253.64, 419 356.2;M 192.39 218.83 C 196.39 240.83, 294.36 276.52, 419 356.2;M 190 226 C 194 248, 293.05 280.68, 419 356.2;M 190 226 C 194 248, 293.05 280.68, 419 356.2;M 190 226 C 194 248, 293.05 280.68, 419 356.2;M 190 226 C 194 248, 293.05 280.68, 419 356.2;M 190 226 C 194 248, 293.05 280.68, 419 356.2;M 190 226 C 194 248, 293.05 280.68, 419 356.2;M 190 226 C 194 248, 293.05 280.68, 419 356.2;M 190 226 C 194 248, 293.05 280.68, 419 356.2;M 190 226 C 194 248, 293.05 280.68, 419 356.2;M 190 226 C 194 248, 293.05 280.68, 419 356.2;M 190 226 C 194 248, 293.05 280.68, 419 356.2;M 190 226 C 194 248, 293.05 280.68, 419 356.2;M 190 226 C 194 248, 293.05 280.68, 419 356.2;M 190 226 C 194 248, 293.05 280.68, 419 356.2;M 190 226 C 194 248, 293.05 280.68, 419 356.2"/>
<animate attributeName="opacity" calcMode="linear" dur="6.2s" repeatCount="indefinite" keyTimes="0.0;0.01;0.02;0.03;0.04;0.06;0.07;0.08;0.09;0.1;0.11;0.12;0.13;0.15;0.16;0.17;0.18;0.19;0.2;0.21;0.22;0.24;0.25;0.26;0.27;0.28;0.29;0.3;0.31;0.33;0.34;0.35;0.36;0.37;0.38;0.39;0.4;0.42;0.43;0.44;0.45;0.46;0.47;0.48;0.49;0.51;0.52;0.53;0.54;0.55;0.56;0.57;0.58;0.6;0.61;0.62;0.63;0.64;0.65;0.66;0.67;0.69;0.7;0.71;0.72;0.73;0.74;0.75;0.76;0.78;0.79;0.8;0.81;0.82;0.83;0.84;0.85;0.87;0.88;0.89;0.9;0.91;0.92;0.93;0.94;0.96;0.97;0.98;0.99;1.0" values="0.0;0.0;0.0;0.0;0.0;0.0;0.0;0.0;0.0;0.0;0.0;0.0;0.0;0.0;0.0;0.0;0.0;0.0;0.0;0.0;0.0;0.0;0.0;0.0;0.0;0.0;0.0;0.0;0.0;0.0;0.0;0.0;0.04;0.24;0.51;0.62;0.62;0.62;0.62;0.62;0.62;0.62;0.62;0.62;0.62;0.62;0.62;0.62;0.62;0.62;0.0;0.0;0.0;0.0;0.0;0.0;0.0;0.0;0.0;0.0;0.0;0.0;0.0;0.0;0.0;0.0;0.0;0.0;0.0;0.0;0.0;0.0;0.0;0.0;0.0;0.0;0.0;0.0;0.0;0.0;0.0;0.0;0.0;0.0;0.0;0.0;0.0;0.0;0.0;0.0"/>
</path>
</svg>