<svg width="66" height="96" viewBox="0 0 66 96" fill="none" xmlns="http://www.w3.org/2000/svg">
<defs>
  <linearGradient id="pineappleJuiceGradient" x1="33" y1="-6" x2="33" y2="101" gradientUnits="userSpaceOnUse">
    <stop offset="0" stop-color="#FFD51A"/>
    <stop offset="0.55" stop-color="#FFD51A"/>
    <stop offset="1" stop-color="#E6BB00"/>
  </linearGradient>
  <clipPath id="glassFullClip">
    <path d="M10.6382 0.515625C10.3771 6.24181 -0.138717 1.86782 0.00138758 15.7722C0.0356176 19.1281 0.0029805 61.9118 1.89041 79.3149C2.59889 85.8489 7.58693 89.2357 14.6924 92.5305C22.2517 96.0356 42.9506 96.0356 50.5098 92.5305C57.7204 89.1873 63.1431 85.7267 63.8619 79.0975C65.7684 61.5198 65.2606 19.1138 65.2009 15.7722C64.9652 2.66771 55.9412 5.89027 55.6969 0.515625C38.0103 0.515625 28.3248 0.515625 10.6382 0.515625Z"/>
  </clipPath>
</defs>

<path opacity="0.5" fill-rule="evenodd" clip-rule="evenodd" d="M10.6382 0.515625C10.3771 6.24181 -0.138717 1.86782 0.00138758 15.7722C0.0356176 19.1281 0.0029805 61.9118 1.89041 79.3149C2.59889 85.8489 7.58693 89.2357 14.6924 92.5305C22.2517 96.0356 42.9506 96.0356 50.5098 92.5305C57.7204 89.1873 63.1431 85.7267 63.8619 79.0975C65.7684 61.5198 65.2606 19.1138 65.2009 15.7722C64.9652 2.66771 55.9412 5.89027 55.6969 0.515625C38.0103 0.515625 28.3248 0.515625 10.6382 0.515625Z" fill="#CBCBCB"/>

<g clip-path="url(#glassFullClip)">
  <rect x="-4" y="96" width="74" height="0" fill="url(#pineappleJuiceGradient)" opacity="0.96">
    <animate attributeName="y" from="96" to="-6" dur="2.6s" begin="0s" fill="freeze" calcMode="spline" keySplines="0.42 0 0.2 1"/>
    <animate attributeName="height" from="0" to="108" dur="2.6s" begin="0s" fill="freeze" calcMode="spline" keySplines="0.42 0 0.2 1"/>
  </rect>
  <rect x="8" y="-6" width="10" height="108" fill="#FFE86A" opacity="0.18">
    <animate attributeName="y" from="96" to="-6" dur="2.6s" begin="0s" fill="freeze" calcMode="spline" keySplines="0.42 0 0.2 1"/>
    <animate attributeName="height" from="0" to="108" dur="2.6s" begin="0s" fill="freeze" calcMode="spline" keySplines="0.42 0 0.2 1"/>
  </rect>
</g>

<path opacity="0.5" d="M33.0549 94.6894C44.1783 94.6894 53.1957 92.8772 53.1957 90.6416C53.1957 88.406 44.1783 86.5938 33.0549 86.5938C21.9314 86.5938 12.9141 88.406 12.9141 90.6416C12.9141 92.8772 21.9314 94.6894 33.0549 94.6894Z" fill="#B2B1B2"/>
<path fill-rule="evenodd" clip-rule="evenodd" d="M16.6875 88.8323C16.6875 88.8323 24.5445 87.0341 34.0453 87.3023C43.5453 87.5697 50.4009 88.6013 50.4009 88.6013C50.4009 88.6013 31.7447 84.1012 16.6875 88.8323Z" fill="#B2B1B2"/>
<path opacity="0.5" fill-rule="evenodd" clip-rule="evenodd" d="M11.1975 0.820517C11.332 3.30906 2.21644 6.16501 1.84707 8.77813C0.870323 15.6803 64.4753 14.8757 64.1577 10.7334C63.8298 6.45624 58.7581 5.10325 56.9216 3.59791C55.0852 2.09256 53.3673 0 53.3673 0L11.1975 0.820517Z" fill="#C5C4C4"/>
<path opacity="0.5" fill-rule="evenodd" clip-rule="evenodd" d="M31.5547 95.1516C38.9619 95.2428 46.549 94.3691 50.5166 92.5305C57.7271 89.1873 63.1498 85.7267 63.8687 79.0975C65.7752 61.5198 65.2673 19.1138 65.2076 15.7722C64.972 2.66771 55.948 5.89027 55.7036 0.515625H50.2395C50.2658 0.76559 50.3167 1.02825 50.3987 1.30599C50.3987 1.30599 49.9386 2.97877 54.0852 5.17608C58.2318 7.37419 60.8325 8.75812 61.4248 12.8266C62.0171 16.8943 62.9811 64.7971 62.5767 71.877C62.1723 78.9578 61.0626 83.3588 54.8757 87.8208C48.6888 92.2821 41.6056 94.7937 34.0161 94.6651C32.8881 94.6461 32.088 94.8302 31.5547 95.1516Z" fill="#CBCBCB"/>
<path opacity="0.5" fill-rule="evenodd" clip-rule="evenodd" d="M10.6382 0.515625C10.3771 6.24181 -0.138717 1.86782 0.00138758 15.7722C0.0356176 19.1281 0.0029805 61.9118 1.89041 79.3149C2.59889 85.8489 7.58693 89.2357 14.6925 92.5305C18.613 94.3485 26.0688 95.223 33.3916 95.1547C32.8583 94.831 32.0566 94.6461 30.9255 94.6651C23.3351 94.7937 16.2527 92.2821 10.0658 87.8208C3.87894 83.3596 2.77005 78.9578 2.36486 71.877C1.96047 64.7963 2.92448 16.8943 3.51674 12.8266C4.10899 8.75892 6.70968 7.37419 10.8563 5.17608C15.0029 2.97798 14.5428 1.30599 14.5428 1.30599C14.6248 1.02904 14.6765 0.76559 14.702 0.515625H10.6382Z" fill="#CBCBCB"/>
<path opacity="0.29" fill-rule="evenodd" clip-rule="evenodd" d="M5.67459 9.98388C5.67459 9.98388 10.0449 11.098 18.7855 11.098C27.5261 11.098 49.7995 10.4275 50.6163 11.098C51.4322 11.7686 51.7363 15.13 49.3267 16.8075C46.917 18.4851 23.4281 16.4988 19.8172 24.9715C16.2063 33.4433 18.4058 72.6537 19.7527 78.2434C21.0996 83.8338 23.7321 88.7816 26.7866 90.0012C29.8402 91.2201 12.0804 92.4461 6.46188 81.3929C0.843374 70.3397 3.72825 8.72453 5.67459 9.98388Z" fill="white"/>
<path opacity="0.28" fill-rule="evenodd" clip-rule="evenodd" d="M16.1764 2.375C16.1764 2.375 15.698 3.41454 14.7427 4.1073C13.7867 4.80006 11.6143 5.62296 10.007 6.51093C8.39903 7.3989 7.48438 9.57479 7.48438 9.57479C7.48438 9.57479 15.612 10.5183 19.3487 10.4747C23.0853 10.431 26.6222 9.93347 28.473 8.2218C30.3238 6.51093 30.3421 2.45912 30.3421 2.45912C30.3421 2.45912 22.911 2.50514 16.1764 2.375Z" fill="white"/>
<path fill-rule="evenodd" clip-rule="evenodd" d="M22.0632 4.89341C22.0632 4.89341 21.826 6.17974 20.9838 6.94075C20.1416 7.70175 19.3797 8.98729 19.2468 9.27693C19.1139 9.56578 21.8785 10.3006 23.6689 9.74988C25.4592 9.19837 27.7669 7.96521 28.1188 5.83931C28.4706 3.71263 22.5631 4.05385 22.0632 4.89341Z" fill="white"/>
<path fill-rule="evenodd" clip-rule="evenodd" d="M18.6097 12.5304C17.2946 13.0311 17.1625 15.0253 18.9002 15.2618C20.638 15.4983 30.8266 15.7823 31.6434 14.7738C32.4593 13.7652 30.306 11.4298 18.6097 12.5304Z" fill="white"/>
<path fill-rule="evenodd" clip-rule="evenodd" d="M11.8396 12.2698C10.8198 13.0046 11.5832 14.4742 13.6633 14.2901C15.7426 14.1068 16.0586 11.7191 11.8396 12.2698Z" fill="white"/>
<path opacity="0.5" fill-rule="evenodd" clip-rule="evenodd" d="M28.2505 90.2711C28.2505 90.2711 20.7732 86.3074 20.7732 76.4143C20.7732 66.5212 20.4046 26.4443 19.8259 24.9747C19.2472 23.505 10.0098 18.4883 8.163 18.4883C6.31617 18.4883 11.5884 70.7214 12.4537 76.6238C13.3182 82.5269 17.9297 88.642 28.2505 90.2711Z" fill="white"/>
<path opacity="0.27" fill-rule="evenodd" clip-rule="evenodd" d="M45.8338 91.9639C45.8338 91.9639 51.1482 91.6021 52.3224 80.5028C53.4965 69.4036 52.9457 16.5197 52.3112 13.5281C51.6768 10.5364 50.942 8.96125 48.7306 7.49161C46.5192 6.02198 46.0511 5.27049 46.0447 4.23731C46.0384 3.20412 45.7812 1.94397 45.7812 1.94397L51.6768 1.87891C51.6768 1.87891 52.9743 5.12924 55.3545 6.38859C57.7347 7.64794 60.8934 9.0652 61.3153 13.1599C61.7364 17.2545 61.7587 77.9714 59.7073 82.3391C57.6551 86.7075 51.7285 91.952 45.8338 91.9639Z" fill="white"/>
<path opacity="0.19" fill-rule="evenodd" clip-rule="evenodd" d="M36.3047 92.7223C46.4901 88.8998 39.2206 19.4874 44.3472 18.4875C46.4989 18.0677 50.3223 19.3882 50.8103 35.2621C51.1804 47.2843 51.2369 80.1527 46.5466 89.7235C45.0445 92.789 39.0232 93.3421 36.3047 92.7223Z" fill="#959696"/>
<path fill-rule="evenodd" clip-rule="evenodd" d="M19.3984 93.3774C19.5831 93.0362 20.1698 92.4585 21.0566 92.4585C21.9442 92.4585 30.0082 93.4297 32.5882 93.3512C35.1681 93.2726 43.0936 92.6688 44.3569 92.2752C45.6202 91.8816 46.4895 92.0125 46.8318 92.3275C47.1741 92.6426 47.1216 93.2726 46.9369 93.3774C46.753 93.4821 31.0088 97.1038 19.3984 93.3774Z" fill="#959696"/>
<path fill-rule="evenodd" clip-rule="evenodd" d="M12.3669 1.11328C12.3669 1.11328 12.2029 3.18045 9.79961 4.8207C7.39714 6.46095 3.74407 8.26546 2.75697 10.6929C1.76987 13.1203 1.83516 26.5042 1.83516 29.4569C1.83516 32.4097 1.8678 64.7552 1.70301 65.3781C1.53823 66.0018 0.287642 15.4803 0.452424 13.4139C0.617206 11.3468 1.23175 7.82424 4.3634 6.17368C7.49505 4.52391 11.1155 3.37566 12.3669 1.11328Z" fill="#B2B1B2"/>
<path fill-rule="evenodd" clip-rule="evenodd" d="M52.6562 1.11328C52.6562 1.11328 52.8202 3.18045 55.2227 4.8207C57.6252 6.46095 61.2782 8.26546 62.2653 10.6929C63.2524 13.1203 63.1872 26.5042 63.1872 29.4569C63.1872 32.4097 63.1545 64.7552 63.3193 65.3781C63.4841 66.0018 64.7347 15.4803 64.5699 13.4139C64.4051 11.3468 63.7906 7.82424 60.6589 6.17368C57.5273 4.52312 53.9084 3.37566 52.6562 1.11328Z" fill="#B2B1B2"/>
<path fill-rule="evenodd" clip-rule="evenodd" d="M10.6328 0.410156C10.6328 0.410156 12.5823 1.90995 13.8202 1.93613C15.0572 1.96232 37.0672 1.93613 37.0672 1.93613C37.0672 1.93613 53.5748 2.06707 54.4966 1.49016C55.4185 0.912467 55.6923 0.410156 55.6923 0.410156H10.6328Z" fill="#B8B7B8"/>
<path fill-rule="evenodd" clip-rule="evenodd" d="M15.8158 92.18C10.21 89.1812 3.68718 84.5477 2.71679 77.778C2.19061 74.1039 1.89369 71.217 1.76234 71.4464C1.63099 71.6757 1.41685 79.0905 4.14809 83.847C6.88013 88.6035 11.701 90.4739 15.8158 92.18Z" fill="#959696"/>
<path fill-rule="evenodd" clip-rule="evenodd" d="M49.6562 92.18C55.262 89.1812 61.7848 84.5477 62.7552 77.778C63.2814 74.1039 63.5783 71.217 63.7097 71.4464C63.841 71.6757 64.0552 79.0905 61.3239 83.847C58.5919 88.6035 53.771 90.4739 49.6562 92.18Z" fill="#959696"/>
</svg>
