<svg width="96" height="258" viewBox="0 0 96 258" fill="none" xmlns="http://www.w3.org/2000/svg">
<g opacity="0.76" filter="url(#filter0_f_365_21219)">
<path d="M78 241.5C78 243.433 64.3447 245 47.5 245C30.6553 245 17 243.433 17 241.5C17 239.567 30.6553 238 47.5 238C64.3447 238 78 239.567 78 241.5Z" fill="black"/>
</g>
<path opacity="0.5" fill-rule="evenodd" clip-rule="evenodd" d="M47.0933 206.559C63.1357 206.559 76.1398 213.391 76.1398 221.816C76.1398 230.242 63.1347 237.076 47.0933 237.076C31.052 237.076 18.0469 230.244 18.0469 221.816C18.0469 213.388 31.051 206.559 47.0933 206.559Z" fill="#B2B1B2"/>
<path fill-rule="evenodd" clip-rule="evenodd" d="M23.4766 215C23.4766 215 34.8089 208.223 48.5104 209.232C62.2119 210.24 72.0979 214.128 72.0979 214.128C72.0979 214.128 45.1932 197.163 23.4766 215Z" fill="#B2B1B2"/>
<path fill-rule="evenodd" clip-rule="evenodd" d="M27.3906 232.13C27.6564 230.845 28.5024 228.666 29.783 228.666C31.0626 228.666 42.6921 232.327 46.4136 232.03C50.1352 231.732 61.5635 229.457 63.3859 227.974C65.2082 226.491 66.4616 226.984 66.9548 228.171C67.448 229.359 67.3722 231.732 67.1064 232.13C66.8406 232.528 44.1344 246.181 27.3906 232.13Z" fill="#959696"/>
<path opacity="0.29" fill-rule="evenodd" clip-rule="evenodd" d="M15.3419 0.398438C14.9659 21.9851 -0.200144 28.7592 0.00200288 81.1798C0.0505181 93.8273 0.00503397 131.383 2.72694 196.991C3.97419 227.056 25.7919 241.671 47.5631 241.315C69.3343 241.671 91.152 227.056 92.4003 196.991C95.1222 131.383 95.0757 93.8273 95.1242 81.1798C95.3263 28.7592 80.1613 21.9851 79.7853 0.398438H51.7405H43.3877H15.3419Z" fill="#CBCBCB"/>

<!-- Animated orange juice fill -->
<g clip-path="url(#orangeJuiceClip)">
  <rect x="4" y="238" width="88" height="0" rx="8" fill="url(#orangeJuiceGradient)" opacity="0.88">
    <animate attributeName="y" values="238;170;40;28" keyTimes="0;0.45;0.88;1" dur="2.8s" begin="0.2s" fill="freeze" calcMode="spline" keySplines="0.42 0 0.58 1;0.42 0 0.58 1;0.2 0 0.2 1"/>
    <animate attributeName="height" values="0;68;198;210" keyTimes="0;0.45;0.88;1" dur="2.8s" begin="0.2s" fill="freeze" calcMode="spline" keySplines="0.42 0 0.58 1;0.42 0 0.58 1;0.2 0 0.2 1"/>
  </rect>
  <ellipse cx="48" cy="238" rx="39" ry="8.5" fill="#FFD35A" opacity="0.95">
    <animate attributeName="cy" values="238;170;40;28" keyTimes="0;0.45;0.88;1" dur="2.8s" begin="0.2s" fill="freeze" calcMode="spline" keySplines="0.42 0 0.58 1;0.42 0 0.58 1;0.2 0 0.2 1"/>
    <animate attributeName="ry" values="2;7.5;9;9" dur="2.8s" begin="0.2s" fill="freeze"/>
  </ellipse>
  <path d="M10 88 C22 82 34 94 48 88 C62 82 74 94 88 88 L88 104 C74 110 62 98 48 104 C34 110 22 98 10 104 Z" fill="#FFE082" opacity="0.32">
    <animateTransform attributeName="transform" type="translate" values="-10 150;0 82;6 0" keyTimes="0;0.55;1" dur="3s" begin="0.2s" fill="freeze"/>
    <animate attributeName="opacity" values="0;0.35;0.22" dur="3s" begin="0.2s" fill="freeze"/>
  </path>
  <circle cx="29" cy="210" r="2.4" fill="#FFF3BF" opacity="0">
    <animate attributeName="cy" values="210;132;110" dur="2.6s" begin="0.8s" fill="freeze"/>
    <animate attributeName="opacity" values="0;0.75;0" dur="2.6s" begin="0.8s" fill="freeze"/>
  </circle>
  <circle cx="64" cy="220" r="1.8" fill="#FFF3BF" opacity="0">
    <animate attributeName="cy" values="220;146;118" dur="2.3s" begin="1s" fill="freeze"/>
    <animate attributeName="opacity" values="0;0.65;0" dur="2.3s" begin="1s" fill="freeze"/>
  </circle>
</g>

<path opacity="0.5" fill-rule="evenodd" clip-rule="evenodd" d="M15.3419 0.398438C14.9659 21.9851 -0.200144 28.7592 0.00200288 81.1798C0.0505181 93.8273 0.00503397 131.383 2.72694 196.991C3.96004 226.711 25.2946 241.331 46.8141 241.32C46.803 240.828 46.7788 240.327 46.7303 239.814C46.7303 239.814 21.4538 239.224 12.4633 221.756C3.47287 204.289 5.10722 188.61 4.25214 175.749C3.39807 162.886 2.25797 83.487 4.25114 61.7186C6.24431 39.9502 14.408 27.063 16.5912 13.7307C17.5221 8.04962 17.987 3.61694 18.2144 0.398438H15.3419ZM47.4095 241.315H47.5631C69.3343 241.671 91.152 227.056 92.4003 196.991C95.1222 131.383 95.0757 93.8273 95.1242 81.1798C95.3263 28.7592 80.1613 21.9851 79.7853 0.398438H76.0082C76.2366 3.61694 76.7015 8.04962 77.6314 13.7307C79.8146 27.063 87.9783 39.9502 89.9715 61.7186C91.9646 83.4844 90.8245 162.886 89.9705 175.749C89.1164 188.613 90.7507 204.289 81.7593 221.756C72.7688 239.224 47.4923 239.814 47.4923 239.814C47.4448 240.325 47.4206 240.822 47.4095 241.315Z" fill="#CBCBCB"/>
<path opacity="0.3" fill-rule="evenodd" clip-rule="evenodd" d="M15.3473 0.00390625C15.2533 5.40583 14.2325 10.2784 12.7578 14.7716C13.813 16.7364 17.4426 19.0779 26.3057 21.3509C38.581 24.4983 56.3811 24.4983 68.6554 21.3509C77.8471 18.9936 81.4089 16.5652 82.3094 14.5556C80.8732 10.1335 79.8827 5.71397 79.7897 0.39896H51.7448H43.3921L15.3473 0.00390625Z" fill="#CBCBCB"/>
<path opacity="0.1" fill-rule="evenodd" clip-rule="evenodd" d="M15.3438 0.00265245C15.3438 0.00265245 18.1556 2.83134 19.9406 2.87875C21.7255 2.92879 53.4666 2.87875 53.4666 2.87875C53.4666 2.87875 77.2734 3.12635 78.6026 2.03596C79.9317 0.948196 80.3269 0 80.3269 0H15.3438V0.00265245Z" fill="#B8B7B8"/>
<path opacity="0.3" fill-rule="evenodd" clip-rule="evenodd" d="M26.3359 9.97266C26.3359 9.97266 35.0313 11.1605 40.0435 10.9629C45.0558 10.7654 73.5696 10.3677 73.5696 10.3677C73.5696 10.3677 47.5988 18.4825 26.3359 9.97266Z" fill="white"/>
<path opacity="0.3" fill-rule="evenodd" clip-rule="evenodd" d="M18.6879 3.30078C18.6879 3.30078 19.2772 7.00128 18.7071 9.84578C18.1381 12.6903 17.9481 15.7824 19.4672 16.6489C20.9853 17.5154 30.0506 21.3476 41.0625 21.2238C52.0735 21.1 64.6996 20.8525 67.5943 18.8745C70.4901 16.8965 56.8209 17.5128 48.9897 17.2652C41.1586 17.0176 28.5335 15.9062 26.3978 12.9379C24.2621 9.9696 24.3531 8.27605 30.3366 9.59822C36.3212 10.9204 61.5663 8.73171 60.7122 7.74404C59.8582 6.75373 25.666 9.23474 18.6879 3.30078Z" fill="#B2B1B2"/>
<path fill-rule="evenodd" clip-rule="evenodd" d="M17.0937 4.27344C17.0937 4.27344 15.516 17.2581 12.0148 26.7819C8.51362 36.3057 5.25097 42.6137 3.19817 66.8552C1.14536 91.0968 2.85554 153.889 3.2103 165.533C3.56507 177.177 3.9451 197.955 6.36581 207.6C8.78652 217.248 14.481 226.522 14.481 226.522C14.481 226.522 4.15433 215.07 3.2103 200.305C2.26628 185.54 0.0295184 96.5961 0.621809 76.7504C1.21511 56.9047 3.61156 42.1264 7.07636 32.2312C10.5412 22.336 17.0937 4.27344 17.0937 4.27344Z" fill="#B2B1B2"/>
<path fill-rule="evenodd" clip-rule="evenodd" d="M78.0625 4.27344C78.0625 4.27344 79.6403 17.2581 83.1404 26.7819C86.6416 36.3057 89.9043 42.6137 91.9571 66.8552C94.0099 91.0968 92.3007 153.889 91.9459 165.533C91.5912 177.177 91.2111 197.955 88.7904 207.6C86.3697 217.248 80.6752 226.522 80.6752 226.522C80.6752 226.522 91.0019 215.07 91.9459 200.305C92.89 185.54 95.1267 96.5961 94.5344 76.7504C93.9411 56.9047 91.5447 42.1264 88.0799 32.2312C84.6151 22.336 78.0625 4.27344 78.0625 4.27344Z" fill="#B2B1B2"/>
<path opacity="0.56" fill-rule="evenodd" clip-rule="evenodd" d="M41.6525 81.1881C41.6525 81.1881 56.6872 82.5735 62.6869 80.3953C68.6866 78.2198 81.6725 71.6195 82.5832 74.0294C83.4928 76.4394 77.1151 85.9368 62.6869 90.4881C48.2586 95.0393 24.7944 80.1978 41.6525 81.1881Z" fill="#CBCBCD"/>
<path opacity="0.5" fill-rule="evenodd" clip-rule="evenodd" d="M50.513 89.1306C50.513 89.1306 57.2657 100.783 56.4541 128.332C55.6424 155.884 58.051 223.102 49.1131 228.156C40.1752 233.21 48.5046 235.554 48.5046 235.554C48.5046 235.554 68.7446 242.147 72.4499 217.881C76.1533 193.616 74.6614 91.8224 73.2464 86.8023C71.8303 81.7797 50.513 84.6874 50.513 89.1306Z" fill="#D2D2D1"/>
<path opacity="0.3" fill-rule="evenodd" clip-rule="evenodd" d="M18.4323 27C16.5332 32.934 6.83114 46.93 5.61724 74.7772C4.39628 102.793 3.98896 202.511 14.2813 217.993C21.1502 228.325 40.0873 231.636 40.0873 231.636C40.0873 231.636 30.0821 214.016 28.3861 186.169C26.69 158.321 23.294 89.3369 25.7036 70.7844C28.1131 52.2318 33.5236 38.8758 45.0096 36.6503C56.4956 34.4247 50.136 29.4784 44.0605 28.2405C37.985 27.0027 20.8985 33.0788 18.4323 27Z" fill="white"/>
<path opacity="0.3" fill-rule="evenodd" clip-rule="evenodd" d="M12.053 64.9531C10.0164 64.9531 9.43828 75.6595 17.3988 82.2677C25.3604 88.8733 51.877 91.9153 58.0475 86.9691C67.9204 79.0519 17.232 76.8684 12.053 64.9531Z" fill="white"/>
<path opacity="0.3" fill-rule="evenodd" clip-rule="evenodd" d="M19.1232 93.4516C16.4649 88.6791 12.6252 88.0101 12.0551 96.915C11.4861 105.82 15.4087 188.187 19.9328 198.575C24.4568 208.965 21.5469 109.033 19.1232 93.4516Z" fill="white"/>
<path opacity="0.3" fill-rule="evenodd" clip-rule="evenodd" d="M17.1246 62.6558C16.3656 58.9448 18.0262 46.2078 21.9185 44.1033C25.8109 41.9989 23.2952 57.3355 22.6776 62.0369C22.0601 66.7356 19.6868 68.0973 17.1246 62.6558Z" fill="white"/>
<path opacity="0.3" fill-rule="evenodd" clip-rule="evenodd" d="M67.0993 40.2891C67.0993 40.2891 76.5527 61.0672 77.7605 109.835C78.9684 158.605 75.8098 204.164 74.128 214.299C72.4451 224.434 65.4266 228.49 67.3035 230.11C69.1804 231.727 84.8731 223.971 88.4107 194.751C91.9482 165.532 92.7133 75.0632 88.4107 54.1429C84.108 33.22 78.2629 26.7039 77.7484 18.2468C77.2339 9.78966 77.8081 4.2929 76.1899 4.4404C74.5717 4.58526 63.7083 7.01363 62.736 7.01363C61.7637 7.01363 62.548 29.2719 67.0993 40.2891Z" fill="white"/>
<defs>
<linearGradient id="orangeJuiceGradient" x1="48" y1="82" x2="48" y2="238" gradientUnits="userSpaceOnUse">
  <stop stop-color="#FFD95A"/>
  <stop offset="0.48" stop-color="#FFB321"/>
  <stop offset="1" stop-color="#F57C00"/>
</linearGradient>
<clipPath id="orangeJuiceClip">
  <path d="M15.3419 0.398438C14.9659 21.9851 -0.200144 28.7592 0.00200288 81.1798C0.0505181 93.8273 0.00503397 131.383 2.72694 196.991C3.97419 227.056 25.7919 241.671 47.5631 241.315C69.3343 241.671 91.152 227.056 92.4003 196.991C95.1222 131.383 95.0757 93.8273 95.1242 81.1798C95.3263 28.7592 80.1613 21.9851 79.7853 0.398438H51.7405H43.3877H15.3419Z"/>
</clipPath>
<filter id="filter0_f_365_21219" x="4" y="225" width="87" height="33" filterUnits="userSpaceOnUse" color-interpolation-filters="sRGB">
<feFlood flood-opacity="0" result="BackgroundImageFix"/>
<feBlend mode="normal" in="SourceGraphic" in2="BackgroundImageFix" result="shape"/>
<feGaussianBlur stdDeviation="6.5" result="effect1_foregroundBlur_365_21219"/>
</filter>
</defs>
</svg>
