<svg width="84" height="109" viewBox="0 0 84 109" fill="none" xmlns="http://www.w3.org/2000/svg">
<defs>
  <linearGradient id="watermelonJuiceGradientNew" x1="42" y1="-4" x2="42" y2="109" gradientUnits="userSpaceOnUse">
    <stop offset="0" stop-color="white" stop-opacity="0"/>
    <stop offset="0.0607066" stop-color="#F54803"/>
    <stop offset="1" stop-color="#E73202"/>
  </linearGradient>
  <clipPath id="glassInnerFullClipNew">
    <!-- Full body clip extended to the mouth so final fill reaches the glass tip/rim -->
    <path d="M13.6026 0.585938L13.4684 3.21127C13.4684 3.21127 8.02152 4.64262 6.40838 5.29915C4.79525 5.95568 0.558914 7.98402 0.021203 12.6377C-0.417619 16.4319 6.07377 70.3698 8.48508 90.1503C9.3901 97.5773 9.70705 101.426 18.781 105.171C28.4342 109.155 54.8642 109.155 64.5166 105.171C73.7239 101.372 73.9243 97.4387 74.8426 89.9035C77.2768 69.924 83.7126 16.4162 83.2755 12.6377C82.7378 7.98402 78.5015 5.95568 76.8883 5.29915C75.2743 4.64341 71.2737 3.21127 71.2737 3.21127L71.1395 0.585938C48.5547 0.585938 36.1874 0.585938 13.6026 0.585938Z"/>
  </clipPath>
</defs>

<path opacity="0.5" fill-rule="evenodd" clip-rule="evenodd" d="M17.8902 1.50578C18.0544 4.33481 6.12855 8.72289 5.11493 9.97797C4.19314 11.1195 3.94415 13.3656 16.6126 14.0347C29.2802 14.7037 64.755 13.856 69.2598 13.5575C73.7645 13.259 80.4881 13.4972 80.1526 11.5284C79.8162 9.55961 71.3832 6.65772 69.145 4.94668C66.9067 3.23563 66.9994 0 66.9994 0L17.8902 1.50578Z" fill="#C5C4C4"/>
<path opacity="0.5" d="M40.7579 106.386C55.0914 106.386 66.7111 104.19 66.7111 101.48C66.7111 98.7707 55.0914 96.5742 40.7579 96.5742C26.4243 96.5742 14.8047 98.7707 14.8047 101.48C14.8047 104.19 26.4243 106.386 40.7579 106.386Z" fill="#CBCBCB"/>
<path opacity="0.5" fill-rule="evenodd" clip-rule="evenodd" d="M13.6026 0.585938L13.4684 3.21127C13.4684 3.21127 8.02152 4.64262 6.40838 5.29915C4.79525 5.95568 0.558914 7.98402 0.021203 12.6377C-0.417619 16.4319 6.07377 70.3698 8.48508 90.1503C9.3901 97.5773 9.70705 101.426 18.781 105.171C28.4342 109.155 54.8642 109.155 64.5166 105.171C73.7239 101.372 73.9243 97.4387 74.8426 89.9035C77.2768 69.924 83.7126 16.4162 83.2755 12.6377C82.7378 7.98402 78.5015 5.95568 76.8883 5.29915C75.2743 4.64341 71.2737 3.21127 71.2737 3.21127L71.1395 0.585938C48.5547 0.585938 36.1874 0.585938 13.6026 0.585938Z" fill="#CBCBCB"/>
<path opacity="0.5" fill-rule="evenodd" clip-rule="evenodd" d="M13.6026 0.585938L13.4684 3.21127C13.4684 3.21127 8.02152 4.64262 6.40838 5.29915C4.79525 5.95568 0.558914 7.98402 0.021203 12.6377C-0.417619 16.4319 6.07377 70.3698 8.48508 90.1503C9.3901 97.5773 9.70705 101.426 18.781 105.171C28.4342 109.155 54.8642 109.155 64.5166 105.171C73.7239 101.372 73.9243 97.4387 74.8426 89.9035C77.2768 69.924 83.7126 16.4162 83.2755 12.6377C82.7378 7.98402 78.5015 5.95568 76.8883 5.29915C75.2743 4.64341 71.2737 3.21127 71.2737 3.21127L71.1395 0.585938H65.0922C65.0922 0.585938 64.9934 2.2108 66.5888 4.21956C68.1852 6.22832 78.3664 7.90567 78.3664 12.615C78.3664 17.3243 71.7479 87.7239 69.8654 93.5708C64.5784 109.991 19.5139 109.991 14.2268 93.5708C12.3444 87.7239 5.72589 17.325 5.72589 12.615C5.72589 7.90489 15.908 6.22753 17.5034 4.21956C19.0989 2.2108 19 0.585938 19 0.585938H13.6026Z" fill="#B2B1B2"/>
<path fill-rule="evenodd" clip-rule="evenodd" d="M13.6016 0.46875C13.6016 0.46875 16.0915 2.17353 17.671 2.2033C19.2515 2.23307 47.3556 2.2033 47.3556 2.2033C47.3556 2.2033 68.4349 2.35216 69.611 1.69641C70.7879 1.03988 71.1376 0.46875 71.1376 0.46875H13.6016Z" fill="#B8B7B8"/>
<path fill-rule="evenodd" clip-rule="evenodd" d="M14.0773 1.84766C14.0773 1.84766 14.3289 3.11214 13.0151 3.6676C11.7013 4.22228 5.28228 6.11352 3.39985 7.54566C1.51742 8.9778 0.0720586 11.5726 0.239818 14.4063C0.407576 17.24 8.41409 90.9325 9.35353 93.7537C10.2921 96.5757 13.1758 102.352 21.1311 104.971C29.0864 107.59 34.0936 106.999 34.0936 106.999C34.0936 106.999 20.6181 105.015 16.4294 100.795C12.2416 96.5757 11.4337 92.6208 10.8289 89.0413C10.2241 85.4617 2.26615 16.7942 2.26615 16.7942C-0.0551001 4.92268 11.9679 7.75014 14.049 4.22228C14.7289 3.07061 14.0773 1.84766 14.0773 1.84766Z" fill="#959696"/>
<path fill-rule="evenodd" clip-rule="evenodd" d="M69.321 1.84766C69.321 1.84766 69.0694 3.11214 70.3832 3.6676C71.697 4.22228 78.116 6.11352 79.9984 7.54566C81.8808 8.9778 83.3262 11.5726 83.1585 14.4063C82.9907 17.24 74.9842 90.9325 74.0447 93.7537C73.1061 96.5757 70.2225 102.352 62.2672 104.971C54.3119 107.59 49.3047 106.999 49.3047 106.999C49.3047 106.999 62.7802 105.015 66.9679 100.795C71.1566 96.5757 71.9636 92.6208 72.5684 89.0413C73.1732 85.4617 81.1312 16.7942 81.1312 16.7942C83.4525 4.92268 71.4294 7.75014 69.3483 4.22228C68.6702 3.07061 69.321 1.84766 69.321 1.84766Z" fill="#959696"/>

<!-- Static FULL state: shown AFTER the color_matched fill animation completes,
     so the liquid starts full; the optional top-off animations only run if
     triggered (begin="0s"). -->
<g clip-path="url(#glassInnerFullClipNew)">
  <rect x="-2" y="-2" width="88" height="113" fill="url(#watermelonJuiceGradientNew)">
    <animate attributeName="y" from="109" to="-2" dur="2.8s" begin="0s" fill="freeze"/>
    <animate attributeName="height" from="0" to="113" dur="2.8s" begin="0s" fill="freeze"/>
  </rect>
  <rect x="9" y="-2" width="12" height="113" fill="white" opacity="0.12">
    <animate attributeName="y" from="109" to="-2" dur="2.8s" begin="0s" fill="freeze"/>
    <animate attributeName="height" from="0" to="113" dur="2.8s" begin="0s" fill="freeze"/>
  </rect>
</g>
<path opacity="0.29" fill-rule="evenodd" clip-rule="evenodd" d="M7.26599 11.3494C7.26599 11.3494 12.8462 12.6162 24.0083 12.6162C35.1696 12.6162 63.6109 11.8547 64.6528 12.6162C65.6947 13.3777 66.0832 17.1986 63.0061 19.1055C59.9291 21.0116 40.8566 22.7211 36.2459 32.3496C31.6352 41.979 32.2691 83.8651 33.9891 90.2189C35.7091 96.5734 39.0713 102.197 42.9704 103.583C46.8695 104.969 24.1911 106.361 17.0163 93.7984C9.84153 81.2367 4.77962 9.91802 7.26599 11.3494Z" fill="white"/>
<path opacity="0.28" fill-rule="evenodd" clip-rule="evenodd" d="M20.6698 2.69922C20.6698 2.69922 20.0588 3.88066 18.8386 4.6688C17.6183 5.45616 14.8441 6.39082 12.7913 7.40068C10.7384 8.41054 9.57031 10.8831 9.57031 10.8831C9.57031 10.8831 19.9484 11.9556 24.7198 11.9063C29.4912 11.8569 34.0075 11.2913 36.3711 9.34597C38.7348 7.40146 38.7577 2.79636 38.7577 2.79636C38.7577 2.79636 29.2696 2.84729 20.6698 2.69922Z" fill="white"/>
<path fill-rule="evenodd" clip-rule="evenodd" d="M28.1793 5.56076C28.1793 5.56076 27.8765 7.02267 26.8011 7.88759C25.7248 8.75252 24.7527 10.2144 24.584 10.5427C24.4145 10.871 27.9445 11.7069 30.2304 11.0801C32.5164 10.4534 35.4627 9.05179 35.9121 6.63565C36.3607 4.21793 28.8177 4.60652 28.1793 5.56076Z" fill="white"/>
<path fill-rule="evenodd" clip-rule="evenodd" d="M23.7773 14.2417C22.0979 14.8105 21.9293 17.0778 24.149 17.3457C26.3678 17.6144 39.3789 17.938 40.4207 16.791C41.4626 15.6456 38.7122 12.9905 23.7773 14.2417Z" fill="white"/>
<path fill-rule="evenodd" clip-rule="evenodd" d="M15.1281 13.9453C13.8258 14.7804 14.8005 16.4507 17.4564 16.2416C20.1132 16.0332 20.5167 13.3185 15.1281 13.9453Z" fill="white"/>
<path opacity="0.5" fill-rule="evenodd" clip-rule="evenodd" d="M36.0853 102.601C36.0853 102.601 26.5372 98.095 26.5372 86.8502C26.5372 75.6054 26.0666 30.0543 25.3275 28.3839C24.5885 26.7136 12.7933 21.0117 10.435 21.0117C8.07662 21.0117 14.809 80.3797 15.9136 87.0891C17.0182 93.7993 22.9065 100.749 36.0853 102.601Z" fill="white"/>
<path opacity="0.27" fill-rule="evenodd" clip-rule="evenodd" d="M49.2969 105.422C49.2969 105.422 56.0831 105.01 57.5824 92.3944C59.0816 79.7793 63.9255 18.7763 63.1158 15.3762C62.3061 11.976 61.3676 10.1858 58.5439 8.51553C55.7194 6.84523 55.1225 5.99127 55.1146 4.81689C55.1066 3.6425 54.7782 2.21036 54.7782 2.21036L62.3061 2.13672C62.3061 2.13672 63.9625 5.83067 67.0025 7.2628C70.0416 8.69494 74.0757 10.3049 74.6134 14.9586C75.1512 19.6123 69.6328 89.5184 67.0122 94.4831C64.3916 99.4478 56.824 105.408 49.2969 105.422Z" fill="white"/>
<path opacity="0.19" fill-rule="evenodd" clip-rule="evenodd" d="M41.0703 105.387C54.3498 101.043 50.026 22.1475 56.6436 21.0115C59.4214 20.5344 64.2087 22.0355 63.6983 40.0775C63.3116 53.7423 61.0372 91.0994 54.3639 101.978C52.2254 105.462 44.497 106.091 41.0703 105.387Z" fill="#959696"/>
</svg>
