<svg width="98" height="101" viewBox="0 0 98 101" fill="none" xmlns="http://www.w3.org/2000/svg">
<defs>
  <clipPath id="watermelonJuiceGlassClip">
    <path d="M21.6971 0C21.6971 0 21.9503 3.71264 21.7601 4.47388C21.1973 6.73456 5.11519 14.5527 1.27912 22.4636C-1.62899 28.46 1.27816 59.585 1.65756 66.8196C2.03697 74.0535 4.06013 88.9027 13.7946 94.1378C28.6448 102.124 69.238 102.124 84.0882 94.1378C93.8227 88.9027 95.8458 74.0535 96.2252 66.8196C96.6046 59.5858 99.5118 28.4607 96.6037 22.4636C92.7676 14.5527 76.6855 6.73456 76.1227 4.47388C75.9325 3.71264 76.1857 0 76.1857 0H21.6971Z"/>
  </clipPath>
  <linearGradient id="watermelonJuiceGradient" x1="49" y1="-4" x2="49" y2="103" gradientUnits="userSpaceOnUse">
    <!-- Matched from Watermelon Jar(4).svg paint1_linear_541_208 -->
    <stop offset="0" stop-color="white" stop-opacity="0"/>
    <stop offset="0.0607066" stop-color="#F54803"/>
    <stop offset="1" stop-color="#E73202"/>
  </linearGradient>
</defs>

<path opacity="0.5" fill-rule="evenodd" clip-rule="evenodd" d="M48.995 88.2227C65.5779 88.2227 79.0213 90.2876 79.0213 92.8347C79.0213 95.3817 65.5779 97.4467 48.995 97.4467C32.4122 97.4467 18.9688 95.3817 18.9688 92.8347C18.9688 90.2876 32.4122 88.2227 48.995 88.2227Z" fill="#B2B1B2"/>
<path fill-rule="evenodd" clip-rule="evenodd" d="M24.4766 97.4145C24.8072 96.9519 25.8594 96.1698 27.4525 96.1698C29.0447 96.1698 43.5126 97.4857 48.1409 97.3785C52.7702 97.272 66.9878 96.454 69.2556 95.9201C71.5234 95.3869 73.0821 95.5647 73.6956 95.9913C74.3092 96.418 74.2146 97.2713 73.8839 97.4138C73.5532 97.557 45.3074 102.464 24.4766 97.4145Z" fill="#959696"/>
<path fill-rule="evenodd" clip-rule="evenodd" d="M24.5859 90.7712C24.5859 90.7712 36.3006 88.7228 50.4636 89.0271C64.6277 89.3322 74.8467 90.5072 74.8467 90.5072C74.8467 90.5072 47.0337 85.38 24.5859 90.7712Z" fill="#B2B1B2"/>
<path opacity="0.38" fill-rule="evenodd" clip-rule="evenodd" d="M21.6971 0C21.6971 0 21.9503 3.71264 21.7601 4.47388C21.1973 6.73456 5.11519 14.5527 1.27912 22.4636C-1.62899 28.46 1.27816 59.585 1.65756 66.8196C2.03697 74.0535 4.06013 88.9027 13.7946 94.1378C28.6448 102.124 69.238 102.124 84.0882 94.1378C93.8227 88.9027 95.8458 74.0535 96.2252 66.8196C96.6046 59.5858 99.5118 28.4607 96.6037 22.4636C92.7676 14.5527 76.6855 6.73456 76.1227 4.47388C75.9325 3.71264 76.1857 0 76.1857 0H21.6971Z" fill="#CBCBCB"/>
<g id="watermelonJuiceLayer" clip-path="url(#watermelonJuiceGlassClip)">
  <rect id="watermelonJuiceFillRect" x="-4" y="104" width="106" height="112" fill="url(#watermelonJuiceGradient)">
    <animate attributeName="y" from="104" to="-8" dur="2.8s" fill="freeze" calcMode="spline" keySplines="0.42 0 0.58 1"/>
  </rect>
  <rect x="24" y="0" width="8" height="101" fill="white" opacity="0.12"/>
  <rect x="68" y="0" width="6" height="101" fill="white" opacity="0.08"/>
</g>

<path opacity="0.29" fill-rule="evenodd" clip-rule="evenodd" d="M24.8847 3.77591C24.8847 3.77591 17.0625 10.5803 12.7954 13.246C8.52835 15.9118 2.99787 20.5526 2.60222 21.5045C1.3761 24.4581 24.0714 28.0844 47.3258 28.434C71.8226 28.8031 95.7211 24.5394 94.4615 21.5045C94.0668 20.5526 88.5354 15.9125 84.2683 13.2467C80.0012 10.581 72.179 3.77663 72.179 3.77663L52.6336 1.53826L52.5409 0.609375L48.5319 1.06842L44.5228 0.609375L44.4301 1.53826L24.8847 3.77591Z" fill="white"/>
<path opacity="0.38" fill-rule="evenodd" clip-rule="evenodd" d="M21.7257 0.460581C21.7859 1.4794 21.9083 3.87751 21.7601 4.47254C21.1973 6.73322 5.11519 14.5514 1.27912 22.4623C-1.62899 28.4587 1.27816 59.5837 1.65756 66.8183C2.03697 74.0522 4.06013 88.9013 13.7946 94.1365C28.6448 102.122 69.238 102.122 84.0882 94.1365C93.8227 88.9013 95.8458 74.0522 96.2252 66.8183C96.6046 59.5844 99.5118 28.4594 96.6037 22.4623C92.7676 14.5514 76.6855 6.73322 76.1227 4.47254C75.9736 3.87535 76.0968 1.46357 76.1571 0.450508C74.7933 0.41885 73.4449 0.555557 72.1289 0.903078C72.1289 0.903078 71.8995 4.24518 72.7616 5.37839C73.6226 6.51161 93.6478 17.1545 95.9137 24.5935C98.1796 32.0332 96.4756 47.9968 95.8 56.7604C95.1243 65.5232 93.3066 81.8833 88.4078 87.8919C83.509 93.9005 76.1829 95.2574 69.3641 96.1014C64.5408 96.6986 56.2571 96.5051 50.4103 96.4713C49.9974 96.4677 49.5607 96.4662 49.1039 96.4662C48.6461 96.4655 48.2094 96.4677 47.7965 96.4713C41.9506 96.5051 33.6659 96.6986 28.8426 96.1014C22.0239 95.2574 14.6987 93.9005 9.7999 87.8919C4.90112 81.8833 3.08343 65.5232 2.40777 56.7604C1.73211 47.9975 0.0281425 32.0332 2.29404 24.5935C4.55994 17.1538 24.5842 6.51161 25.4462 5.37839C26.3072 4.24518 26.0779 0.903078 26.0779 0.903078C24.6568 0.528216 23.1994 0.397265 21.7257 0.460581Z" fill="#959696"/>
<path fill-rule="evenodd" clip-rule="evenodd" d="M22.3438 0.90625C22.3438 0.90625 29.6738 2.33015 36.093 2.4244C42.5123 2.51794 70.092 2.84244 72.4535 2.4244C74.814 2.00637 76.1634 0.906969 76.1634 0.906969L22.3438 0.90625Z" fill="#B2B1B2"/>
<path opacity="0.5" fill-rule="evenodd" clip-rule="evenodd" d="M23.9729 0.604706C23.9729 0.604706 23.2925 4.42815 23.1348 5.08218C22.9771 5.73693 32.2213 7.34286 47.3143 7.5213C47.8179 7.52706 48.3177 7.53209 48.8137 7.53641V7.53857L48.9217 7.53785H48.9456L49.0536 7.53857V7.53641C49.5496 7.53209 50.0485 7.52778 50.5531 7.5213C65.646 7.34286 74.8902 5.73693 74.7325 5.08218C74.5749 4.42815 73.8944 0.604706 73.8944 0.604706L49.0536 0.144942V0.140625L48.9341 0.142784L48.8147 0.140625V0.144942L23.9729 0.604706Z" fill="#CBCBCB"/>
<path opacity="0.5" fill-rule="evenodd" clip-rule="evenodd" d="M16.3147 25.4009C14.6317 25.0095 29.8336 29.9719 51.1719 29.9719C64.4624 29.9719 71.0747 38.5995 71.0843 47.6811C71.0938 56.7627 67.7184 88.082 66.6691 90.2498C65.6207 92.4177 64.4137 94.2625 65.5414 94.6194C66.6691 94.9763 77.7109 93.6509 82.1615 73.5235C86.6121 53.3961 84.5841 26.3247 82.7664 25.5513C80.9507 24.7771 48.9643 30.7267 16.3147 25.4009Z" fill="#D2D2D1"/>
<path opacity="0.33" fill-rule="evenodd" clip-rule="evenodd" d="M15.6671 11.2207C17.7917 8.84139 19.4377 8.30611 20.3934 8.54353C21.349 8.78096 28.5614 10.4473 31.5453 10.4473C34.5291 10.4473 32.7662 15.444 30.9075 18.0024C29.0489 20.5602 25.5943 26.8066 25.5872 30.6731C25.5808 34.5395 24.2199 61.6427 25.5808 75.1926C26.9417 88.7424 28.9911 95.3112 27.2063 95.2802C25.4215 95.25 10.7045 95.0831 7.71361 78.5237C5.71431 67.4525 4.35404 47.0821 5.15556 33.4063C5.93074 20.1781 7.71489 20.1285 15.6671 11.2207Z" fill="white"/>
<path opacity="0.5" fill-rule="evenodd" clip-rule="evenodd" d="M41.0469 2.85864C39.1508 2.91836 37.5711 2.60394 34.6668 2.65718C31.7625 2.71043 27.7286 2.0859 27.2584 2.44277C26.7882 2.79964 26.4289 5.44238 27.6531 5.92301C28.8773 6.40364 35.267 7.7376 44.3258 7.7376C53.3846 7.7376 67.3996 7.41023 69.6521 6.7857C71.9037 6.16117 70.4023 6.22449 65.0687 6.5497C59.7351 6.87492 46.1836 7.73544 42.6276 7.14257C39.0715 6.5497 43.8527 6.58424 47.2502 6.5497C50.6476 6.51445 55.5464 5.74458 54.283 5.47692C53.0186 5.20926 36.2274 5.47692 34.4499 4.70345C32.6714 3.92927 56.2191 3.36445 41.0469 2.85864Z" fill="#B2B1B2"/>
<path opacity="0.28" fill-rule="evenodd" clip-rule="evenodd" d="M11.3349 28.7061C14.4953 28.9442 17.9119 30.6509 17.9224 35.0025C17.932 39.3547 15.71 56.761 17.9224 68.4896C20.1348 80.219 25.9156 89.7927 24.1438 90.2482C22.373 90.7029 11.2833 83.5158 9.06617 66.7894C6.84901 50.0638 7.8582 26.6051 11.3349 28.7061Z" fill="white"/>
<path opacity="0.5" fill-rule="evenodd" clip-rule="evenodd" d="M67.9616 13.7098C72.741 16.7389 80.6396 22.3518 82.162 27.1947C84.3744 34.2322 84.3849 58.2155 82.1668 72.0105C79.9496 85.8056 72.934 93.2215 67.5889 95.5534C62.2438 97.8853 88.4904 96.4765 93.0901 78.2033C97.6897 59.9308 96.8067 30.049 93.265 23.7275C89.7223 17.4052 76.578 8.125 73.8304 8.125C71.0829 8.125 88.5277 20.317 85.999 21.2358C84.6811 21.7143 81.6459 19.1816 78.4492 16.4382C71.9516 10.862 67.0098 9.62373 64.7353 9.84893C60.7501 10.2439 67.0767 13.1486 67.9616 13.7098Z" fill="white"/>
<path fill-rule="evenodd" clip-rule="evenodd" d="M25.4709 1.68595C25.4709 1.68595 25.123 3.90849 24.4836 5.2108C23.8443 6.5131 15.9571 11.0114 12.4106 13.4894C8.86317 15.9674 3.93954 20.2621 3.70253 20.5593C3.46553 20.8571 9.11355 14.3571 13.1446 11.4719C17.1756 8.58671 21.9549 6.17853 22.19 5.00934C22.3267 4.3294 22.2034 2.15506 22.9488 1.51111C23.4831 1.04918 25.057 1.42476 25.4709 1.68595Z" fill="#959696"/>
<path fill-rule="evenodd" clip-rule="evenodd" d="M72.6484 1.68595C72.6484 1.68595 72.9963 3.90849 73.6356 5.2108C74.275 6.5131 82.1622 11.0114 85.7087 13.4894C89.2561 15.9674 94.1797 20.2621 94.4167 20.5593C94.6538 20.8571 89.0057 14.3571 84.9747 11.4719C80.9446 8.58671 76.1644 6.17853 75.9293 5.00934C75.7926 4.3294 75.9159 2.15506 75.1705 1.51111C74.6353 1.04918 73.0613 1.42476 72.6484 1.68595Z" fill="#959696"/>
<path fill-rule="evenodd" clip-rule="evenodd" d="M18.6542 94.6267C18.6542 94.6267 13.2814 92.366 10.357 89.3916C7.43362 86.4172 5.84911 80.2611 4.60674 76.4535C3.36436 72.6459 2.29688 61.6058 2.29688 60.8669C2.29688 60.1286 2.3762 72.8049 3.95592 78.1789C5.53565 83.5528 7.78913 93.0517 18.6542 94.6267Z" fill="#959696"/>
<path fill-rule="evenodd" clip-rule="evenodd" d="M79.5234 94.6267C79.5234 94.6267 84.8972 92.366 87.8206 89.3916C90.744 86.4172 92.3275 80.2611 93.5709 76.4535C94.8132 72.6459 95.8807 61.6058 95.8807 60.8669C95.8807 60.1286 95.8014 72.8049 94.2217 78.1789C92.642 83.5528 90.3885 93.0517 79.5234 94.6267Z" fill="#959696"/>
</svg>
