<svg width="178" height="195" viewBox="0 0 178 195" fill="none" xmlns="http://www.w3.org/2000/svg">
<defs>
  <clipPath id="realWideJarJuiceClip" clipPathUnits="userSpaceOnUse">
    <path d="M39.3029 0C39.3029 0 39.7617 6.72522 39.4172 8.10415C38.3975 12.1992 9.26585 26.3613 2.31704 40.6915C-2.95082 51.5535 2.31531 107.935 3.00258 121.04C3.68984 134.143 7.35467 161.042 24.9881 170.525C51.8883 184.991 125.42 184.991 152.321 170.525C169.954 161.042 173.619 134.143 174.306 121.04C174.993 107.936 180.259 51.5548 174.992 40.6915C168.043 26.3613 138.911 12.1992 137.891 8.10415C137.547 6.72522 138.006 0 138.006 0H39.3029Z"/>
  </clipPath>
  <linearGradient id="naturalOrangeJuiceGradient" x1="0" y1="62" x2="0" y2="176" gradientUnits="userSpaceOnUse">
    <stop offset="0" stop-color="#FFB13B"/>
    <stop offset="0.55" stop-color="#F7931E"/>
    <stop offset="1" stop-color="#E97810"/>
  </linearGradient>
</defs>

<g filter="url(#filter0_f_365_21171)">
<path d="M148.312 178.5C148.312 180.433 121.226 182 87.8125 182C54.3993 182 27.3125 180.433 27.3125 178.5C27.3125 176.567 54.3993 175 87.8125 175C121.226 175 148.312 176.567 148.312 178.5Z" fill="black"/>
</g>
<path opacity="0.5" fill-rule="evenodd" clip-rule="evenodd" d="M88.7814 159.809C118.82 159.809 143.172 163.549 143.172 168.163C143.172 172.777 118.82 176.517 88.7814 176.517C58.7426 176.517 34.3906 172.777 34.3906 168.163C34.3906 163.549 58.7426 159.809 88.7814 159.809Z" fill="#B2B1B2"/>
<path fill-rule="evenodd" clip-rule="evenodd" d="M44.3828 176.465C44.9818 175.627 46.8878 174.211 49.7736 174.211C52.6577 174.211 78.8654 176.594 87.2494 176.4C95.635 176.207 121.389 174.725 125.497 173.758C129.605 172.793 132.429 173.115 133.54 173.887C134.652 174.66 134.48 176.206 133.881 176.464C133.282 176.723 82.1165 185.612 44.3828 176.465Z" fill="#959696"/>
<path fill-rule="evenodd" clip-rule="evenodd" d="M44.5625 164.433C44.5625 164.433 65.7828 160.722 91.4384 161.274C117.096 161.826 135.607 163.955 135.607 163.955C135.607 163.955 85.2253 154.667 44.5625 164.433Z" fill="#B2B1B2"/>

<!-- Shape-aware orange juice fill: clipped to the actual jar body, not a rectangle mask. -->
<g id="orangeJuiceFill80" clip-path="url(#realWideJarJuiceClip)">
  <rect x="-10" y="176" width="198" height="0" fill="url(#naturalOrangeJuiceGradient)">
    <animate attributeName="y" from="176" to="64" dur="3.2s" begin="0s" calcMode="spline" keySplines="0.42 0 0.2 1" fill="freeze"/>
    <animate attributeName="height" from="0" to="112" dur="3.2s" begin="0s" calcMode="spline" keySplines="0.42 0 0.2 1" fill="freeze"/>
  </rect>

  <!-- Wide liquid surface, reaches the jar walls and rises with the fill. -->
  <path d="M7 176 C34 171 58 181 88 176 C119 171 143 181 171 176 L171 184 L7 184 Z" fill="#FFBD55" opacity="0.95">
    <animate attributeName="d" dur="3.2s" begin="0s" fill="freeze" calcMode="spline" keySplines="0.42 0 0.2 1"
      from="M7 176 C34 171 58 181 88 176 C119 171 143 181 171 176 L171 184 L7 184 Z"
      to="M7 64 C34 59 58 69 88 64 C119 59 143 69 171 64 L171 72 L7 72 Z"/>
  </path>
  <path d="M17 176 C45 174 63 178 88 176 C116 174 133 178 160 176" stroke="#FFD28A" stroke-width="3" stroke-linecap="round" fill="none" opacity="0.75">
    <animate attributeName="d" dur="3.2s" begin="0s" fill="freeze" calcMode="spline" keySplines="0.42 0 0.2 1"
      from="M17 176 C45 174 63 178 88 176 C116 174 133 178 160 176"
      to="M17 64 C45 62 63 66 88 64 C116 62 133 66 160 64"/>
  </path>

  <!-- Subtle moving juice highlight. -->
  <path d="M39 92 C54 83 69 81 82 86 C70 103 57 127 54 158 C45 149 37 119 39 92Z" fill="white" opacity="0.12">
    <animate attributeName="opacity" values="0;0.14;0.12" dur="3.2s" fill="freeze"/>
  </path>
  <circle cx="62" cy="148" r="2.2" fill="#FFD28A" opacity="0">
    <animate attributeName="opacity" values="0;0.35;0.1" dur="2.4s" begin="0.6s" fill="freeze"/>
    <animate attributeName="cy" values="148;118;82" dur="2.4s" begin="0.6s" fill="freeze"/>
  </circle>
  <circle cx="115" cy="154" r="1.8" fill="#FFD28A" opacity="0">
    <animate attributeName="opacity" values="0;0.3;0.08" dur="2.2s" begin="0.9s" fill="freeze"/>
    <animate attributeName="cy" values="154;124;90" dur="2.2s" begin="0.9s" fill="freeze"/>
  </circle>
</g>
<path opacity="0.2" fill-rule="evenodd" clip-rule="evenodd" d="M39.3029 0C39.3029 0 39.7617 6.72522 39.4172 8.10415C38.3975 12.1992 9.26585 26.3613 2.31704 40.6915C-2.95082 51.5535 2.31531 107.935 3.00258 121.04C3.68984 134.143 7.35467 161.042 24.9881 170.525C51.8883 184.991 125.42 184.991 152.321 170.525C169.954 161.042 173.619 134.143 174.306 121.04C174.993 107.936 180.259 51.5548 174.992 40.6915C168.043 26.3613 138.911 12.1992 137.891 8.10415C137.547 6.72522 138.006 0 138.006 0H39.3029Z" fill="#CBCBCB"/>
<path opacity="0.1" fill-rule="evenodd" clip-rule="evenodd" d="M45.0979 6.83755C45.0979 6.83755 30.9285 19.1632 23.1989 23.9921C15.4694 28.821 5.45124 37.2275 4.73455 38.9518C2.51349 44.302 43.6247 50.8708 85.7486 51.5042C130.123 52.1729 173.414 44.4493 171.132 38.9518C170.417 37.2275 160.397 28.8223 152.668 23.9934C144.938 19.1645 130.769 6.83886 130.769 6.83886L95.3633 2.78417L95.1954 1.10156L87.9333 1.93309L80.6711 1.10156L80.5032 2.78417L45.0979 6.83755Z" fill="white"/>
<path opacity="0.38" fill-rule="evenodd" clip-rule="evenodd" d="M39.3548 0.832346C39.4639 2.67787 39.6855 7.0219 39.4172 8.09976C38.3975 12.1948 9.26585 26.3569 2.31704 40.6871C-2.95082 51.5491 2.31531 107.93 3.00258 121.035C3.68984 134.139 7.35467 161.037 24.9881 170.52C51.8883 184.986 125.42 184.986 152.321 170.52C169.954 161.037 173.619 134.139 174.306 121.035C174.993 107.932 180.259 51.5504 174.992 40.6871C168.043 26.3569 138.911 12.1948 137.891 8.09976C137.621 7.01799 137.845 2.6492 137.954 0.814099C135.483 0.756753 133.041 1.00439 130.657 1.6339C130.657 1.6339 130.242 7.68791 131.803 9.74066C133.363 11.7934 169.637 31.0724 173.742 44.5476C177.846 58.0241 174.76 86.9413 173.536 102.816C172.312 118.689 169.019 148.325 160.145 159.209C151.271 170.093 138.001 172.551 125.649 174.08C116.912 175.162 101.906 174.811 91.3151 174.75C90.5672 174.743 89.7761 174.741 88.9486 174.741C88.1194 174.739 87.3283 174.743 86.5804 174.75C75.991 174.811 60.9837 175.162 52.2467 174.08C39.895 172.551 26.6257 170.093 17.7519 159.209C8.87807 148.325 5.58544 118.689 4.36152 102.816C3.1376 86.9426 0.0509782 58.0241 4.15552 44.5476C8.26006 31.0711 44.5327 11.7934 46.0942 9.74066C47.6539 7.68791 47.2385 1.6339 47.2385 1.6339C44.6643 0.954862 42.0243 0.717652 39.3548 0.832346Z" fill="#959696"/>
<path opacity="0.55" fill-rule="evenodd" clip-rule="evenodd" d="M40.5078 1.64453C40.5078 1.64453 53.7857 4.22384 65.4138 4.39457C77.0418 4.56401 127.001 5.15181 131.279 4.39457C135.554 3.63733 137.999 1.64583 137.999 1.64583L40.5078 1.64453Z" fill="#B2B1B2"/>
<path opacity="0.1" fill-rule="evenodd" clip-rule="evenodd" d="M43.4593 1.09065C43.4593 1.09065 42.2267 8.01659 41.9411 9.20132C41.6555 10.3874 58.4008 13.2964 85.7407 13.6196C86.653 13.6301 87.5584 13.6392 88.4569 13.647V13.6509L88.6525 13.6496H88.6958L88.8914 13.6509V13.647C89.7899 13.6392 90.6935 13.6314 91.6076 13.6196C118.948 13.2964 135.693 10.3874 135.407 9.20132C135.122 8.01659 133.889 1.09065 133.889 1.09065L88.8914 0.257821V0.25L88.675 0.25391L88.4586 0.25V0.257821L43.4593 1.09065Z" fill="#CBCBCB"/>
<path opacity="0.3" fill-rule="evenodd" clip-rule="evenodd" d="M29.5741 46.0047C26.5256 45.2957 54.0629 54.2848 92.7158 54.2848C116.791 54.2848 128.769 69.9131 128.786 86.3638C128.803 102.815 122.689 159.548 120.788 163.475C118.889 167.401 116.703 170.743 118.745 171.39C120.788 172.036 140.79 169.635 148.852 133.176C156.914 96.7163 153.24 47.6782 149.947 46.2771C146.658 44.8747 88.7169 55.652 29.5741 46.0047Z" fill="#D2D2D1"/>
<path opacity="0.3" fill-rule="evenodd" clip-rule="evenodd" d="M28.4019 20.3253C32.2503 16.0154 35.2321 15.0457 36.9632 15.4758C38.6943 15.9059 51.7591 18.9243 57.1642 18.9243C62.5692 18.9243 59.3758 27.9756 56.0089 32.61C52.6421 37.2432 46.3843 48.5583 46.3715 55.5621C46.3598 62.5659 43.8946 111.662 46.3598 136.206C48.825 160.751 52.5374 172.65 49.3044 172.594C46.0713 172.539 19.4124 172.237 13.9945 142.241C10.3729 122.186 7.9089 85.286 9.3608 60.5132C10.765 36.5511 13.9969 36.4612 28.4019 20.3253Z" fill="white"/>
<path opacity="0.3" fill-rule="evenodd" clip-rule="evenodd" d="M74.3721 5.17268C70.9375 5.28085 68.076 4.7113 62.815 4.80774C57.5541 4.90419 50.2469 3.77289 49.3952 4.41935C48.5435 5.0658 47.8926 9.85296 50.1102 10.7236C52.3278 11.5942 63.9022 14.0106 80.3117 14.0106C96.7212 14.0106 122.108 13.4176 126.189 12.2863C130.267 11.155 127.548 11.2697 117.886 11.8588C108.225 12.4479 83.677 14.0067 77.2354 12.9327C70.7939 11.8588 79.4548 11.9214 85.609 11.8588C91.7632 11.7949 100.637 10.4004 98.3485 9.91552C96.0582 9.43068 65.642 9.91552 62.422 8.51443C59.2004 7.11204 101.856 6.08892 74.3721 5.17268Z" fill="#B2B1B2"/>
<path opacity="0.3" fill-rule="evenodd" clip-rule="evenodd" d="M20.5438 52.0006C26.2687 52.432 32.4576 55.5235 32.4766 63.4061C32.4939 71.29 28.469 102.82 32.4766 124.066C36.4842 145.313 46.9559 162.655 43.7464 163.48C40.5385 164.304 20.4504 151.285 16.4341 120.986C12.4179 90.6888 14.246 48.1948 20.5438 52.0006Z" fill="white"/>
<path opacity="0.3" fill-rule="evenodd" clip-rule="evenodd" d="M123.131 24.8274C131.789 30.3145 146.097 40.4818 148.854 49.2546C152.862 62.0026 152.881 105.447 148.863 130.436C144.847 155.425 132.138 168.858 122.456 173.082C112.774 177.306 160.318 174.754 168.65 141.653C176.982 108.554 175.382 54.4249 168.967 42.9738C162.549 31.5214 138.739 14.7109 133.762 14.7109C128.785 14.7109 160.385 36.796 155.805 38.4604C153.418 39.3271 147.919 34.7393 142.129 29.7697C130.359 19.6688 121.407 17.4258 117.287 17.8337C110.068 18.5493 121.528 23.8108 123.131 24.8274Z" fill="white"/>
<path fill-rule="evenodd" clip-rule="evenodd" d="M46.1716 3.0517C46.1716 3.0517 45.5415 7.0777 44.3833 9.43675C43.2252 11.7958 28.9381 19.9443 22.5138 24.433C16.0878 28.9216 7.16897 36.7013 6.73964 37.2396C6.31032 37.7791 16.5414 26.0048 23.8433 20.7784C31.1453 15.552 39.8027 11.1897 40.2286 9.07181C40.4762 7.84016 40.2528 3.90147 41.6031 2.73498C42.5708 1.89824 45.422 2.57858 46.1716 3.0517Z" fill="#959696"/>
<path fill-rule="evenodd" clip-rule="evenodd" d="M131.625 3.0517C131.625 3.0517 132.255 7.0777 133.413 9.43675C134.571 11.7958 148.859 19.9443 155.283 24.433C161.709 28.9216 170.628 36.7013 171.057 37.2396C171.486 37.7791 161.255 26.0048 153.953 20.7784C146.653 15.552 137.994 11.1897 137.568 9.07181C137.32 7.84016 137.544 3.90147 136.193 2.73498C135.224 1.89824 132.373 2.57858 131.625 3.0517Z" fill="#959696"/>
<path fill-rule="evenodd" clip-rule="evenodd" d="M33.8177 171.409C33.8177 171.409 24.0853 167.314 18.788 161.926C13.4924 156.538 10.6222 145.387 8.37167 138.489C6.12119 131.592 4.1875 111.594 4.1875 110.255C4.1875 108.918 4.33119 131.88 7.19276 141.615C10.0543 151.349 14.1364 168.556 33.8177 171.409Z" fill="#959696"/>
<path fill-rule="evenodd" clip-rule="evenodd" d="M144.062 171.409C144.062 171.409 153.797 167.314 159.092 161.926C164.388 156.538 167.256 145.387 169.509 138.489C171.759 131.592 173.693 111.594 173.693 110.255C173.693 108.918 173.549 131.88 170.687 141.615C167.826 151.349 163.744 168.556 144.062 171.409Z" fill="#959696"/>
<defs>
<filter id="filter0_f_365_21171" x="14.3125" y="162" width="147" height="33" filterUnits="userSpaceOnUse" color-interpolation-filters="sRGB">
<feFlood flood-opacity="0" result="BackgroundImageFix"/>
<feBlend mode="normal" in="SourceGraphic" in2="BackgroundImageFix" result="shape"/>
<feGaussianBlur stdDeviation="6.5" result="effect1_foregroundBlur_365_21171"/>
</filter>
</defs>
</svg>
